<?xml version="1.0" encoding="utf-8"?>
<!-- Generator: Adobe Illustrator 17.0.0, SVG Export Plug-In . SVG Version: 6.00 Build 0)  -->
<!DOCTYPE svg PUBLIC "-//W3C//DTD SVG 1.1//EN" "http://www.w3.org/Graphics/SVG/1.1/DTD/svg11.dtd">
<svg version="1.1" id="Layer_1" xmlns="http://www.w3.org/2000/svg" xmlns:xlink="http://www.w3.org/1999/xlink" x="0px" y="0px"
	 width="30px" height="30px" viewBox="0 0 30 30" enable-background="new 0 0 30 30" xml:space="preserve">
<path fill="#2DD8C0" d="M11.211,7.563c-0.084-0.049-0.188-0.05-0.273-0.002c-0.085,0.049-0.137,0.139-0.137,0.236v8.088
	c0,0.15,0.122,0.272,0.272,0.272c0.15,0,0.272-0.122,0.272-0.272V8.308c1.019,0.777,1.634,2,1.634,3.297v2.531l-0.781,0.696
	c-0.058,0.052-0.091,0.126-0.091,0.203v5.51c0,0.21-0.171,0.381-0.382,0.381c-0.21,0-0.381-0.171-0.381-0.381v-2.424
	c0-0.15-0.122-0.272-0.272-0.272c-0.15,0-0.272,0.122-0.272,0.272v2.424c0,0.511,0.415,0.926,0.926,0.926
	c0.511,0,0.926-0.416,0.926-0.926v-5.388l0.78-0.696c0.058-0.052,0.091-0.126,0.091-0.203v-2.653
	C13.525,9.95,12.638,8.401,11.211,7.563z"/>
<path fill="#2DD8C0" d="M20.825,7.525c-0.15,0-0.272,0.122-0.272,0.272v2.99H19.79v-2.99c0-0.15-0.122-0.272-0.272-0.272
	s-0.272,0.122-0.272,0.272v2.99h-0.763v-2.99c0-0.15-0.122-0.272-0.272-0.272s-0.272,0.122-0.272,0.272v2.99h-0.763v-2.99
	c0-0.15-0.122-0.272-0.272-0.272S16.63,7.647,16.63,7.797v3.262c0,0.817,0.621,1.492,1.416,1.577v3.443
	c-0.083,0.089-0.138,0.206-0.15,0.338l-0.321,3.634c-0.032,0.366,0.091,0.731,0.338,1.001c0.244,0.266,0.59,0.419,0.949,0.419
	s0.705-0.153,0.949-0.419c0.247-0.27,0.37-0.635,0.338-1.001l-0.321-3.634c-0.012-0.132-0.067-0.248-0.15-0.338v-1.509
	c0-0.15-0.122-0.272-0.272-0.272s-0.272,0.122-0.272,0.272v1.332h-0.545v-3.257h0.919c0.875,0,1.587-0.712,1.587-1.587V7.797
	C21.097,7.647,20.975,7.525,20.825,7.525z M19.271,16.447c0.008,0,0.016,0.008,0.017,0.018l0.321,3.634
	c0.019,0.217-0.051,0.425-0.197,0.585c-0.143,0.156-0.338,0.242-0.548,0.242s-0.405-0.086-0.548-0.242
	c-0.146-0.16-0.216-0.368-0.197-0.585l0.321-3.634c0.001-0.01,0.008-0.018,0.017-0.018L19.271,16.447L19.271,16.447z M19.51,12.101
	h-1.294c-0.48,0-0.886-0.327-1.006-0.77h3.305C20.396,11.774,19.991,12.101,19.51,12.101z"/>
</svg>
