<?xml version="1.0" encoding="utf-8"?>
<!-- Generator: Adobe Illustrator 17.0.0, SVG Export Plug-In . SVG Version: 6.00 Build 0)  -->
<!DOCTYPE svg PUBLIC "-//W3C//DTD SVG 1.1//EN" "http://www.w3.org/Graphics/SVG/1.1/DTD/svg11.dtd">
<svg version="1.1" id="Layer_1" xmlns="http://www.w3.org/2000/svg" xmlns:xlink="http://www.w3.org/1999/xlink" x="0px" y="0px"
	 width="100px" height="100px" viewBox="0 0 100 100" enable-background="new 0 0 100 100" xml:space="preserve">
<g>
	<path fill="#14049E" d="M16.987,36.498c0.526-1.306,0.791-2.691,1.263-4.021c1.649-4.646,4.621-8.288,8.456-11.23
		c2.835-2.175,6.051-3.656,9.605-4.308c0.163-0.03,0.309-0.153,0.463-0.232c0.331-0.175,0.729,0.055,1.052-0.172
		c0.131-0.013,0.261-0.025,0.392-0.038c0.341-0.177,0.741,0.046,1.077-0.16c0.493-0.017,0.987-0.035,1.48-0.052
		c0.418-0.109,0.835-0.109,1.253,0c0.562,0.018,1.125,0.035,1.687,0.053c0.341,0.206,0.745-0.016,1.09,0.161
		c0.125,0.012,0.251,0.023,0.376,0.035c0.329,0.231,0.734-0.002,1.072,0.175c2.414,0.688,4.84,1.347,7.048,2.588
		c1.72,0.967,3.301,2.119,4.795,3.421c3.561,3.104,5.859,7.002,7.342,11.419c0.37,1.102,0.536,2.273,0.796,3.412
		c0.173,0.33-0.049,0.722,0.163,1.046c0.104,3.324,0.021,6.618-1.035,9.832c-0.759,2.31-1.724,4.504-3.117,6.498
		c-0.425,0.609-0.491,0.993,0.139,1.615c5.83,5.756,11.608,11.565,17.402,17.359c1.248,1.249,2.482,2.513,3.755,3.736
		c0.412,0.396,0.479,0.696,0.275,1.267c-0.79,2.217-2.539,3.538-4.375,4.734c-0.548,0.357-1.275,0.103-1.87-0.496
		c-6.891-6.943-13.823-13.845-20.727-20.776c-0.553-0.555-0.928-0.832-1.731-0.28c-2.139,1.471-4.458,2.606-7.007,3.221
		c-1.392,0.336-2.778,0.694-4.204,0.862c-0.413,0.105-0.826,0.108-1.239-0.002c-0.217,0.017-0.38,0.273-0.63,0.141
		c-0.406-0.176-0.855,0.035-1.261-0.14c-0.65,0.031-1.301,0.196-1.951-0.002c-0.278-0.316-0.688-0.008-0.991-0.209
		c-3.402-0.393-6.523-1.585-9.412-3.386c-4.262-2.657-7.46-6.273-9.572-10.836c-0.853-1.843-1.371-3.796-1.857-5.758
		c-0.177-0.338,0.057-0.743-0.175-1.073c-0.012-0.125-0.023-0.25-0.035-0.376c-0.177-0.345,0.044-0.748-0.16-1.089
		c-0.018-0.492-0.036-0.984-0.053-1.476c-0.111-0.488-0.111-0.977,0-1.465c0.018-0.494,0.035-0.987,0.053-1.481
		c0.205-0.336-0.016-0.735,0.16-1.075c0.013-0.131,0.025-0.262,0.038-0.392C17.042,37.224,16.813,36.828,16.987,36.498z"/>
	<path fill="#FFFFFF" d="M58.355,41.338c-0.222,9.393-7.307,16.705-16.773,16.689c-9.719-0.016-16.828-7.24-16.849-16.812
		c-0.021-9.48,7.307-16.589,16.546-16.651C50.979,24.498,58.189,32.149,58.355,41.338z"/>
</g>
</svg>
