<?xml version="1.0" encoding="utf-8"?>
<!-- Generator: Adobe Illustrator 17.0.0, SVG Export Plug-In . SVG Version: 6.00 Build 0)  -->
<!DOCTYPE svg PUBLIC "-//W3C//DTD SVG 1.1//EN" "http://www.w3.org/Graphics/SVG/1.1/DTD/svg11.dtd">
<svg version="1.1" id="Layer_1" xmlns="http://www.w3.org/2000/svg" xmlns:xlink="http://www.w3.org/1999/xlink" x="0px" y="0px"
	 width="30px" height="30px" viewBox="0 0 30 30" enable-background="new 0 0 30 30" xml:space="preserve">
<g>
	<g>
		<g>
			<g>
				<g>
					<path fill="#E6B600" d="M17.601,11.511c-0.076-0.061-0.173-0.091-0.271-0.084h-1.477l1.389-1.551l0.13-0.144l0.067-0.084
						c0.023-0.033,0.042-0.068,0.056-0.105c0.016-0.04,0.024-0.083,0.025-0.127c0.01-0.103-0.041-0.201-0.13-0.253
						c-0.116-0.053-0.242-0.077-0.369-0.07h-1.727c-0.092-0.006-0.183,0.021-0.257,0.077c-0.061,0.052-0.094,0.128-0.091,0.207
						c0,0.12,0.04,0.192,0.12,0.218c0.114,0.032,0.233,0.047,0.352,0.042h1.125c-0.047,0.066-0.108,0.143-0.183,0.232l-0.288,0.324
						l-0.39,0.422l-0.454,0.503c-0.157,0.176-0.26,0.293-0.309,0.352c-0.112,0.136-0.098,0.335,0.032,0.454
						c0.093,0.07,0.208,0.104,0.324,0.095h2.054c0.098,0.008,0.196-0.021,0.274-0.081c0.06-0.052,0.093-0.128,0.091-0.207
						C17.696,11.647,17.662,11.567,17.601,11.511z"/>
				</g>
			</g>
		</g>
		<g>
			<g>
				<g>
					<path fill="#E6B600" d="M20.714,13.308c-0.062-0.049-0.139-0.073-0.218-0.067h-1.182l1.108-1.238l0.105-0.116l0.067-0.081
						c0.019-0.026,0.034-0.054,0.046-0.084c0.013-0.032,0.02-0.067,0.021-0.102c0.009-0.082-0.031-0.162-0.102-0.204
						c-0.092-0.042-0.194-0.062-0.295-0.056h-1.393c-0.073-0.004-0.146,0.018-0.204,0.063c-0.049,0.041-0.076,0.102-0.074,0.165
						c0,0.094,0.032,0.152,0.095,0.176c0.092,0.025,0.186,0.036,0.281,0.032h0.9c-0.035,0.053-0.084,0.113-0.148,0.186l-0.232,0.26
						l-0.302,0.352l-0.352,0.401c-0.127,0.141-0.21,0.237-0.25,0.288c-0.083,0.106-0.072,0.258,0.025,0.352
						c0.074,0.055,0.165,0.081,0.257,0.074h1.632c0.078,0.006,0.156-0.016,0.218-0.063c0.047-0.042,0.072-0.103,0.07-0.165
						C20.789,13.415,20.762,13.352,20.714,13.308z"/>
				</g>
			</g>
		</g>
		<g>
			<g>
				<g>
					<path fill="#E6B600" d="M24.403,11.332c-0.076-0.061-0.173-0.091-0.271-0.084h-1.488l1.389-1.551l0.13-0.144l0.084-0.102
						c0.023-0.033,0.042-0.068,0.056-0.105c0.016-0.04,0.024-0.083,0.025-0.127c0.01-0.103-0.041-0.201-0.13-0.253
						c-0.116-0.053-0.242-0.077-0.369-0.07h-1.744c-0.092-0.006-0.183,0.021-0.257,0.077C21.768,9.024,21.734,9.1,21.737,9.18
						c0,0.12,0.04,0.192,0.12,0.218c0.114,0.032,0.233,0.047,0.352,0.042h1.125c-0.047,0.066-0.108,0.143-0.183,0.232l-0.292,0.331
						l-0.38,0.422l-0.454,0.503c-0.157,0.176-0.26,0.293-0.309,0.352c-0.112,0.136-0.098,0.335,0.032,0.454
						c0.093,0.07,0.208,0.104,0.324,0.095h2.05c0.099,0.012,0.2-0.013,0.281-0.07c0.06-0.052,0.093-0.128,0.091-0.207
						C24.497,11.467,24.464,11.388,24.403,11.332z"/>
				</g>
			</g>
		</g>
		<g>
			<g>
				<g>
					<path fill="#E6B600" d="M23.189,17.254c-0.1-0.104-0.254-0.136-0.387-0.081c-3.811,1.578-8.18-0.233-9.758-4.044
						c-0.801-1.936-0.753-4.119,0.133-6.017c0.083-0.176,0.008-0.385-0.168-0.468c-0.09-0.043-0.194-0.045-0.286-0.007
						c-4.179,1.717-6.175,6.496-4.458,10.674s6.496,6.175,10.674,4.458c1.906-0.783,3.446-2.256,4.313-4.125
						C23.314,17.514,23.289,17.359,23.189,17.254z M15.836,21.685c-4.131-0.001-7.479-3.35-7.479-7.481
						c0-2.713,1.469-5.212,3.839-6.533c-0.281,0.833-0.423,1.706-0.422,2.585c0,4.519,3.664,8.183,8.184,8.183
						c0.757,0,1.511-0.105,2.24-0.313C20.834,20.331,18.429,21.677,15.836,21.685z"/>
				</g>
			</g>
		</g>
	</g>
</g>
</svg>
