<?xml version="1.0" encoding="utf-8"?>
<!-- Generator: Adobe Illustrator 17.0.0, SVG Export Plug-In . SVG Version: 6.00 Build 0)  -->
<!DOCTYPE svg PUBLIC "-//W3C//DTD SVG 1.1//EN" "http://www.w3.org/Graphics/SVG/1.1/DTD/svg11.dtd">
<svg version="1.1" id="Layer_1" xmlns="http://www.w3.org/2000/svg" xmlns:xlink="http://www.w3.org/1999/xlink" x="0px" y="0px"
	 width="50px" height="50px" viewBox="0 0 50 50" enable-background="new 0 0 50 50" xml:space="preserve">
<g>
	<path fill="#FFFFFF" d="M13.066,19.172c0.198-0.492,0.298-1.014,0.476-1.515c0.621-1.75,1.74-3.122,3.185-4.23
		c1.068-0.819,2.279-1.377,3.618-1.623c0.061-0.011,0.116-0.058,0.174-0.088c0.125-0.066,0.275,0.021,0.396-0.065
		c0.049-0.005,0.098-0.01,0.148-0.014c0.128-0.067,0.279,0.017,0.406-0.06c0.186-0.007,0.372-0.013,0.558-0.02
		c0.157-0.041,0.315-0.041,0.472,0c0.212,0.007,0.424,0.013,0.636,0.02c0.128,0.077,0.281-0.006,0.41,0.061
		c0.047,0.004,0.094,0.009,0.142,0.013c0.124,0.087,0.276-0.001,0.404,0.066c0.909,0.259,1.823,0.507,2.655,0.975
		c0.648,0.364,1.243,0.798,1.806,1.288c1.341,1.169,2.207,2.637,2.765,4.301c0.139,0.415,0.202,0.856,0.3,1.285
		c0.065,0.124-0.019,0.272,0.061,0.394c0.039,1.252,0.008,2.493-0.39,3.703c-0.286,0.87-0.649,1.697-1.174,2.447
		c-0.16,0.229-0.185,0.374,0.052,0.608c2.196,2.168,4.372,4.356,6.555,6.538c0.47,0.47,0.935,0.947,1.414,1.407
		c0.155,0.149,0.18,0.262,0.104,0.477c-0.298,0.835-0.956,1.333-1.648,1.783c-0.206,0.134-0.48,0.039-0.704-0.187
		c-2.596-2.615-5.207-5.215-7.807-7.825c-0.208-0.209-0.35-0.314-0.652-0.106c-0.806,0.554-1.679,0.981-2.639,1.213
		c-0.524,0.127-1.046,0.261-1.583,0.325c-0.156,0.04-0.311,0.041-0.467-0.001c-0.082,0.006-0.143,0.103-0.237,0.053
		c-0.153-0.066-0.322,0.013-0.475-0.053c-0.245,0.012-0.49,0.074-0.735-0.001c-0.105-0.119-0.259-0.003-0.373-0.079
		c-1.281-0.148-2.457-0.597-3.545-1.275c-1.606-1.001-2.81-2.363-3.605-4.082c-0.321-0.694-0.516-1.43-0.699-2.169
		c-0.067-0.127,0.021-0.28-0.066-0.404c-0.004-0.047-0.009-0.094-0.013-0.142c-0.067-0.13,0.017-0.282-0.06-0.41
		c-0.007-0.185-0.013-0.371-0.02-0.556c-0.042-0.184-0.042-0.368,0-0.552c0.007-0.186,0.013-0.372,0.02-0.558
		c0.077-0.127-0.006-0.277,0.06-0.405c0.005-0.049,0.01-0.099,0.014-0.148C13.087,19.445,13.001,19.296,13.066,19.172z"/>
	<path fill="#4240B0" d="M28.648,20.995c-0.084,3.538-2.752,6.292-6.318,6.286c-3.661-0.006-6.338-2.727-6.347-6.332
		c-0.008-3.571,2.752-6.248,6.232-6.272C25.87,14.652,28.585,17.534,28.648,20.995z"/>
</g>
</svg>
