<?xml version="1.0" encoding="utf-8"?>
<!-- Generator: Adobe Illustrator 17.0.0, SVG Export Plug-In . SVG Version: 6.00 Build 0)  -->
<!DOCTYPE svg PUBLIC "-//W3C//DTD SVG 1.0//EN" "http://www.w3.org/TR/2001/REC-SVG-20010904/DTD/svg10.dtd" [
	<!ENTITY ns_flows "http://ns.adobe.com/Flows/1.0/">
	<!ENTITY ns_extend "http://ns.adobe.com/Extensibility/1.0/">
	<!ENTITY ns_ai "http://ns.adobe.com/AdobeIllustrator/10.0/">
	<!ENTITY ns_graphs "http://ns.adobe.com/Graphs/1.0/">
]>
<svg version="1.0" xmlns:x="&ns_extend;" xmlns:i="&ns_ai;" xmlns:graph="&ns_graphs;"
	 xmlns="http://www.w3.org/2000/svg" xmlns:xlink="http://www.w3.org/1999/xlink" xmlns:a="http://ns.adobe.com/AdobeSVGViewerExtensions/3.0/"
	 x="0px" y="0px" width="500px" height="500px" viewBox="0 0 500 500" enable-background="new 0 0 500 500" xml:space="preserve">
<metadata><?xpacket begin="﻿" id="W5M0MpCehiHzreSzNTczkc9d"?>
<x:xmpmeta xmlns:x="adobe:ns:meta/" x:xmptk="Adobe XMP Core 5.5-c014 79.151739, 2013/04/03-12:12:15        ">
   <rdf:RDF xmlns:rdf="http://www.w3.org/1999/02/22-rdf-syntax-ns#">
      <rdf:Description rdf:about=""
            xmlns:dc="http://purl.org/dc/elements/1.1/"
            xmlns:xmp="http://ns.adobe.com/xap/1.0/"
            xmlns:xmpGImg="http://ns.adobe.com/xap/1.0/g/img/"
            xmlns:xmpMM="http://ns.adobe.com/xap/1.0/mm/"
            xmlns:stRef="http://ns.adobe.com/xap/1.0/sType/ResourceRef#"
            xmlns:stEvt="http://ns.adobe.com/xap/1.0/sType/ResourceEvent#"
            xmlns:illustrator="http://ns.adobe.com/illustrator/1.0/"
            xmlns:xmpTPg="http://ns.adobe.com/xap/1.0/t/pg/"
            xmlns:stDim="http://ns.adobe.com/xap/1.0/sType/Dimensions#"
            xmlns:xmpG="http://ns.adobe.com/xap/1.0/g/"
            xmlns:pdf="http://ns.adobe.com/pdf/1.3/">
         <dc:format>image/svg+xml</dc:format>
         <dc:title>
            <rdf:Alt>
               <rdf:li xml:lang="x-default">01. Refer a friend concept</rdf:li>
            </rdf:Alt>
         </dc:title>
         <xmp:MetadataDate>2019-11-23T00:05:34+01:00</xmp:MetadataDate>
         <xmp:ModifyDate>2019-11-23T00:05:34+01:00</xmp:ModifyDate>
         <xmp:CreateDate>2019-11-23T00:05:34+01:00</xmp:CreateDate>
         <xmp:CreatorTool>Adobe Illustrator CC (Windows)</xmp:CreatorTool>
         <xmp:Thumbnails>
            <rdf:Alt>
               <rdf:li rdf:parseType="Resource">
                  <xmpGImg:width>256</xmpGImg:width>
                  <xmpGImg:height>256</xmpGImg:height>
                  <xmpGImg:format>JPEG</xmpGImg:format>
                  <xmpGImg:image>/9j/4AAQSkZJRgABAgEASABIAAD/7QAsUGhvdG9zaG9wIDMuMAA4QklNA+0AAAAAABAASAAAAAEA&#xA;AQBIAAAAAQAB/+4ADkFkb2JlAGTAAAAAAf/bAIQABgQEBAUEBgUFBgkGBQYJCwgGBggLDAoKCwoK&#xA;DBAMDAwMDAwQDA4PEA8ODBMTFBQTExwbGxscHx8fHx8fHx8fHwEHBwcNDA0YEBAYGhURFRofHx8f&#xA;Hx8fHx8fHx8fHx8fHx8fHx8fHx8fHx8fHx8fHx8fHx8fHx8fHx8fHx8fHx8f/8AAEQgBAAEAAwER&#xA;AAIRAQMRAf/EAaIAAAAHAQEBAQEAAAAAAAAAAAQFAwIGAQAHCAkKCwEAAgIDAQEBAQEAAAAAAAAA&#xA;AQACAwQFBgcICQoLEAACAQMDAgQCBgcDBAIGAnMBAgMRBAAFIRIxQVEGE2EicYEUMpGhBxWxQiPB&#xA;UtHhMxZi8CRygvElQzRTkqKyY3PCNUQnk6OzNhdUZHTD0uIIJoMJChgZhJRFRqS0VtNVKBry4/PE&#xA;1OT0ZXWFlaW1xdXl9WZ2hpamtsbW5vY3R1dnd4eXp7fH1+f3OEhYaHiImKi4yNjo+Ck5SVlpeYmZ&#xA;qbnJ2en5KjpKWmp6ipqqusra6voRAAICAQIDBQUEBQYECAMDbQEAAhEDBCESMUEFURNhIgZxgZEy&#xA;obHwFMHR4SNCFVJicvEzJDRDghaSUyWiY7LCB3PSNeJEgxdUkwgJChgZJjZFGidkdFU38qOzwygp&#xA;0+PzhJSktMTU5PRldYWVpbXF1eX1RlZmdoaWprbG1ub2R1dnd4eXp7fH1+f3OEhYaHiImKi4yNjo&#xA;+DlJWWl5iZmpucnZ6fkqOkpaanqKmqq6ytrq+v/aAAwDAQACEQMRAD8A9U4q7FXYq7FXYq7FXYq7&#xA;FXYq7FXYq7FXYq7FXYq7FXYq7FXYq7FXYq7FXYq7FXYq7FXYq7FXYq7FXYq7FXYq7FXYq7FXYq7F&#xA;XYq7FXYq7FXYq7FXYq7FXYq7FXYq7FXYq7FXYq7FXYq7FXYq7FXYq7FXYq7FXYq7FXYq7FXYq7FX&#xA;Yq7FXYq7FXYq7FXYq7FXYq7FXYq7FXYq7FXYq7FXYq7FXYq7FXYq7FXYq7FXYq7FXYq7FXYq7FXY&#xA;q7FXYq7FXYq7FXYq7FXYq7FXYq7FXYq7FXYq7FXYq7FXYq7FXYq7FXYq7FXYq7FXYq7FXYq7FXYq&#xA;7FXYq7FXYq7FXYq7FXYq7FUPeX0Fqvxmrn7KDqclGBLCeQRSa41a8lJ4t6S9gux+/rmRHGA4ss0i&#xA;g2d2+0xb5muTprJawodirsVdirsVdirsVdirsVdirsVdiq9LidDVJGX5EjAQGQkQjbfWrqM0kpKv&#xA;vsfvGVyxAtkc5HNN7W9guVrG3xD7SHqMolAhyYTEuSvkWbsVdirsVdirsVdirsVdirsVdirsVdiq&#xA;he3a20BkO7dEXxOShGywnPhFsallklkMkh5M3U5lgU4JN7lbhQqx2l1J9iJiPGhp9+RMgGQgT0RC&#xA;aPekVYLGPFmH8K5E5QzGGSpHpSM3H1vUYdRGtR/wRIGA5GQw+alf29rbUiSrTHdiTXiPDYDrhhIn&#xA;djkiI7dUHljU7FXYq7FWyjhQxBCt9k9jTBaaawodirsVbVWZgqirMaAe5wJAW3P+jSCOf9252APv&#xA;8sY78lkK2Ko0EqxLKykRvsreONi6UxNWtjkeNw6MVYdCMSLUGmQ6dqC3SUbaZftDx9xmNOFOZjyc&#xA;XvRmVtrsVdirsVdirsVdirsVdirsVdirsVSDWpzJd+mPsxCn0nc5k4hQcPPKzSAy1pdiqLttRu4y&#xA;EEhKnajb0+VcrlAFsjkkE0t7Rp1EtxIXB3CV/XlUpVsHIjC9yqXt1HZW/wAAAY7RoPHxyMI8RZTm&#xA;IhjrMzsWY1ZjUk+OZThEtYULJfV4H0qc+3LpiFXYq3irZkdlVCxKr9lT0FcFJtrChdEivIqMwRWI&#xA;BY9BXvgJSBZWX3+jziKL/SEJA9RegBpvtXGO47lmKNc1aeMQWqXEcoeXr6S/aBG4wA2aZEULBWwR&#xA;rfxtPduI5UHJVl3YkdhWnhiTw7BAHFuSiDEGgt1a6BV2oYyf7uvfrkb3OzKthuoXESRTMiOJFWlH&#xA;HQ7fTkomwxkKLVvO8Eyyp9pT948MSLCxlRtlMMqyxLIv2XFRmIRTng2LXYEuxV2KuxV2KuxV2Kux&#xA;V2KuxV2KsXvTW7mPX42/XmZHkHXz+oqOSYuxVcFcBZCDwrSvuN6YE11RKancpOJFPwjb0/2aZEwB&#xA;DMZSDald3T3Mxkfbsq+A8MMY0GM5cRtRyTF2KuxV2KuxVI9e836Tok0cN0JJJpF5+nCqsQvQE8mU&#xA;b0zE1GshiNHm7TQdkZtVEyhQiOp/sKV/8rQ0D/lnu/8AgI/+qmY/8q4+6X2frdh/oX1H86HzP/Eu&#xA;/wCVoaB/yz3f/AR/9VMf5Vx90vs/Wv8AoX1H86HzP/Eu/wCVoaB/yz3f/AR/9VMf5Vx90vs/Wv8A&#xA;oX1H86HzP/EptoPm3Stad47X1I5Y9zHKApI8RxLDMrT6qGW+Ho6ztDsvLpa46Il1H4DILc2oWT1w&#xA;xYr+649j75eb6OBGuqEQXHrOXIMX7AHXJmmCrgS7FU80KYtbvEf91mo+Tf25jZhvbl4JbUmWVN7s&#xA;VdirsVdirsVdirsVdirsVU7iZIYXlboor8z2GECzSJSoWxZmLMWPVjU/TmY68lrChcicq7gUBO5p&#xA;WnYe+AlIDpHDMSFCqTso6D78QpK3ChRu7y0s4GuLueO3gTd5pWVEHzZiAMVYbqf53flTprlLnzJa&#xA;uwND9W9S6H326yjBbMQKc+VPPnlHzbBJN5e1KO+WH+9QB45FB6FopVSQA9jxphYmJHNP8UOxV2Kv&#xA;K/zM/wCUiX/mHT/iTZz3af8Ae/B7/wBmf8W/zj+hLdL0ewudMmuZpikicuhAC0G1R75iwxgxsu3y&#xA;5pRmAA9K1PXPLr/lesK2MyRvbLHDGbaQIk9KCT1Svp7N8XLlv88zpZIeDy6dzzmHT5Rrb4h9X84c&#xA;u6rvyea65o9jZWsMtvKXdzShIPIUryFMwcuMRGz0eDNKZIITP8tP+O5J/wAYj+sZn9k/XL+r+l0P&#xA;tV/cw/r/AKC9TzePDuxV2KuxVM9BJ9eQdilfuOU5uTkafmneY7lOxV2KuxV2KuJAFTsPHFVBtQsl&#xA;NDMtfY1/VkuA9zDxI97X6Rsf9/Lh4D3L4ke936Rsf9/LjwHuXxI96nLq9ig2fmfBQf47YRjLE5oh&#xA;J77UJbpgD8MY+yg/WcvhABxsmQyQuTa3Yqv3EA+zRm/2YoP1b4OqeimSAKnphQ+fvzU/5yaTTrqf&#xA;RvJSx3NxETHPrMgDwq42It06SU/nb4fAEb4LboYu988eYPNXmPzFdG61vUrjUJqkqZ3LKteyJ9lB&#xA;7KBgbgAEtijMjhR9J9sQEpzofmnWvLOt2+qaHcta3lr8Kuu6sp+0jqdmU9wcJKCLZn5L/P8A8+aN&#xA;5mXUtX1K41jTp3pf2Mz1UoerQL9mJl6gIAD0OC2EsYIfYWj6xp2s6Xa6pps63FjeRiWCZehU/qI6&#xA;EdjhccikbhQ8r/Mz/lIl/wCYdP8AiTZz3af978Hv/Zn/ABb/ADj+hMfK+l6fJDYRywJItw0frc1B&#xA;5c2FQa/PBhgKGzkazNIcRB5W9tkt4JLdrd41aB1MbREDiUIoVp4UzZkCqeMEiDY5vB/M+n2SabM0&#xA;cSo0DARsoAIHMLTb2OarPAcL3GlySMhZ5qX5af8AHck/4xH9YzI7J+uX9X9Lq/ar+5h/X/QXqebx&#xA;4d2KuxV2KppoCn1pW7BQPvP9mU5uTkacblOsx3KdirsVdiqyaZIYmkc0VRU4QLKJSoWx28v57lzy&#xA;PGP9mMdPp8cyowAcKeQyQ2Ta3Yq7FXYq7FVgMvqsCB6dBxPeuKr8VXqvKFqKKoeTNXehoKU+eDqy&#xA;6PJ/+civOdzoHkkafYymG+1x2tvUWodbZVrOyHsTyVPkx74QGWMWXx9JZyqfh+IeIwGLkLUtZmP2&#xA;eI8TjSUQeFtEabu3fxOHkhBE1NTkEuxV7v8A84x/mY+maufJupS/7j9SYvpjN0iuj1jHgso/4b/W&#xA;OENWWPV9TZJx3mH5g2txd+aobe3QyTSQRhVH+s2aHtDHKeYRjzp7rsDPDFozOZqIkf0Jha/lhKYI&#xA;2l1JopaAsiJUKfY8hl47K2+pw5+1O5rHt7/2Ij/lWsv/AFeZv+AP/NeH+S/6RYf6J/8Aah8/2KZ/&#xA;K1CKHVHI8DF/zfg/kofzk/6Kpf6mPn+xOfLXky00OV5xM1xO448yoUAeAAJzM0ukjhujZLqe0+15&#xA;6ugRwxj082RZlupdiq+eX1ZOfBU2A4qKDYZECmUjazJMU/0aAx2nMj4pTy+joMxcpsuZhjQR+Vtz&#xA;sVdirsVSjXpj+6hHTd2/UMvwjq42olyCUZe4ytBaTT/Y4gV41Ygbn55EyAZRgSiZEhniWGJkDxNx&#xA;Ut8JYU3I+bZAEg2WwgEUEAylWKnYg0I9xljS7CrsVdirsVbRuLhqBqGvE9D88BSHz1/zl06xp5Tk&#xA;pVGOoBuIPwH/AEeg38aHEFuxPncXMB/b+/JWG1ZJeRqPh+I/cMTJUFLMztyY1OVmTIBlesfltrul&#xA;eTbHzNOjGO5Ym6g4/FbxvQQO/wDxk3r4VUdTmJj1UZZDFzs2glDFHIev2dzEq1zLcBP/ACFpOo6t&#xA;500TT9OLLeTXkJikTrHwcO0m3++1Ut9GFEjs+/8AJOGh/qFn9cN76S/WiojMx+1xBJA/HIiAvi6t&#xA;pzTMBC/SDdeaIyTU7FXYqsLOJFUJVCDV69MVX4q7FXYqiLG0a5nCfsDd28BkJyoM8cOIsmUBQFAo&#xA;BsBmI57sVdirsVdiqSa8hFxG/YpT7j/bmRhOzi6gbpZlzjoyymgRB6j8SsnOlCajiRtTK5gtsJAc&#xA;1sSWccqyGfkEPIKFIJpuBhNkckARBu0MzFmLHqTU/TkmBawodiqb6Vp9rLberKvNmJFKkUA+WUZJ&#xA;kGg5OLGCLKKGj2PArwNTX4qmoyHils8GLH5FCyMoNQpIr40zJDhkPJv+clPJsvmD8vJL61TlfaDJ&#xA;9eUDq1uFK3CjcDZKSf7Cg64JNmKVF8b8jlfE5VNcicbTT138l/yl/Tbw+YdXjD6cj1srQ7iZkanO&#xA;X/itWH2f2j12+1rdbq+H0x5u57O0Il+8n9PQd76B17y2dV8vXejpdG0+uqI7i4WNJSYyR6ihZAV+&#xA;JKqDTatc1OPJwyEq5O01F5ARdPnj8yPyPbQNPufMHl7UE1DQbc0nSR1NxEQ/pv8AEgEcgV9j0I6U&#xA;NCc3Gm1vEeGQqTotToeAcUTcXpf/ADjL+Wi6S115k1bj+mJYxHY2vUw28gDNIT05yfZoPsj/AFqD&#xA;NwZ4zJAO4cHXaTJijEyFCT3/ADJda7FV8Uvp8/hVualfiFaV7jARbIGlmFi7FXYq7FXYqr2lnNcv&#xA;xjHwj7TnoMjKQDOEDLkyG1tYraIRp82buTmLKVlzYQERStkWTsVdirsVdiqF1Gz+s25Vf7xfiT5+&#xA;H05OEqLXkhxBjjKysVYUYbEHMpwSGsKuxV2KuxV2Koqwv3tZP5om+2n8R75CcLbMeThKO1HV1Ken&#xA;bNUsPik8Aew98rhj723Jm6BJ8vcZQvlt3srhblQ9s0biZD0ZCp5A/MZGUqFs8cDKQA5kvjjz9+Ut&#xA;houiWlzoxubq+e4itpIjR/UMoIBRVUEEuAAPfNRptaZyIlQD1ev7JjixgwsysB6dbflPpVh5AmfT&#xA;tDsrjzSbJeHrotwDdKgDlDOWUHnXj0HTtmIdUZZN5Hgv7G+Wljjx1GMeOvfv8Wd+SP0wfKelnWbZ&#xA;LTVDAv1q3jVUCt0HwLsp40qo6HbMXNw8Z4eTbhMjAcXNPCAQQeh65W2MF8j+QPL+g6Fqvlc3T6pZ&#xA;6hPNJPHOOP7uRFjKVWlTxUVYU33FMyM2pM5CXIhqx6Hw8ZB3jJOPy113QJPM+qaHp05efTopLdo6&#xA;EqBbyoki8n+ItGTGCffr1zZ9naeQJnLq63tzWwlCOKP8PP5VT04vG1SyUPGi8DQVHc1rm2p5qw4x&#xA;VqYzzCqGY9KePXG1ruWYWLsVdiqIh0+8mXlHESp6E0FfvpkDMBmMcjyCsmi3zfaVU+ZH8K5E5QzG&#xA;CSNt9ChUgzOZD/KNh/XIHMejbHAOqZIiIoVFCqOgG2UktwFN4pdirsVdirsVdirsVQ13p9tc7uOL&#xA;/wA67H6cnGZDXPGJJe2gSV+GYEe4plnjNJ0/m1+gJv8Afq/ccPjBfy573foCb/fq/ccfGC/lz3rJ&#xA;tEukQsjLJT9kVB+jCMoQcBCXEEGh65a0OxV2KuxV5/8AnZ5qOg+SrhYn4XF8Hj5AkEQIhebcbrzF&#xA;IVbszrgLZj528L8o/nok17p9hq9kElmkSCe/SQLGC54+oyFfhFTVvizR5uzqsxPwew0/bnFUZx37&#xA;/wBL3aEzT2MttC/CYboa02ruK5qy7WVRkJHkjNPhnhtVjnbnIK71rQeFTgaMsgZWFQvcFiEQBQaV&#xA;Y0r8qVxRQQl0NL0qC71WciGKCN5riVjsqIOTn7hhjEk0FnmPDudg8e/KO11HS/z51S2m/em/e4uz&#xA;cA0DwTpJMrDrUF2Wu/Ue2dPpJiWMU8j2liMMkgff8301mU6x2KqnIS15/wB6eIQiirttvkeTK7WM&#xA;pVip6g0OFBVrGJJbuJH+yW3HjTemCZoMsYuQZOAAKDpmG57sVdirsVdirsVdirsVdirsVdirsVdi&#xA;rsVeHy/mV51v9clt7TUodPhkkdYElSFYkC14hpJEbc0pUnr4ZqDqskpUDT2Q7J00MQMomRrerv5A&#xA;ppFrf5iLYyy33mGDT7xbk2sNtcQ24SR1iSX+/WNo1qsg4k7HxywZMtbyo35OMdPpOICOMyjw3YMt&#xA;tyOV30Y1q3mv8wbC6MepTvBM/wAQLQQBXH8yMqcWHuu2QlrM8difsDk4+yNBlHFGN/50v1oNfP8A&#xA;5rDAm9DAGpUxRUPtsgOAdoZu/wCwMz2BoyPo/wBlL9b1TSb43+m214V4NPGsjKOgLCpGdFjlxRB7&#xA;wC+fanF4eSUP5siPkaReTaXzH/zlX5hY6za6MhNI7aPcHb95I0k6Ee/p2zfRkS34g+ej1OVlyQ94&#xA;/Kv86bM2tvpPmO5+rXluBHbalKf3cqDYLM5+y4H7TbHua9dRqtEb4o8u56HQ9pRMeDKfj+t7na6t&#xA;azxq/IAMAVYfEpB7gjNWYuyOI8xuER9btv8Afin5GuCmPBLuYr+Z/lDW/NflmfSdN1FbAvRnjZCR&#xA;PwIKxu4NUQnrRT2+WZGmyxxysi3E1WGWSFA0i/y38ky2Gu2+qXaH6zpui2+k+s2/qOXDOeXinpf8&#xA;Pm47OlxCR6cTpu26Hhx6iL03Nk6J2KuxVeCHTiSq8ASDTdqkbVwMlqOyOrqaMpqD7jEhANJ3Drlu&#xA;UHqqUfvQVH0ZjnEejlRzjqqfpqx8W+7B4RT48Xfpqx8W+7HwivjxcNZsSaFiPcqf4Y+EU+NFFxTw&#xA;zLyicOPbIEENgkDyX4EuxV2KuxV2KuxV2KuxVQnvrWDaSQBv5RufuGSECWEsgHN856ILh9YufQjs&#xA;ZAQ5kGpGJYQnMbgysvxf6prnPwviPL4vomoI8MXx/wCbd8vL9KZ+YWiHlVEQWqE6tMQtiXa32tYK&#xA;8C5Y9Tvv16ZZk+jp9XT3Bo0oPj36v7sfVz+qXNHfl5N5q9CVbQ3jWAkthGIxI0QP1qP1eNPh/u+X&#xA;L265PTGdbXW33tHakcFji4eKpd1/Sa+3khfPAuzpunyayiprzSz8vhVZmtBx9JpwKHly5Ba70yOo&#xA;uhxfV+ht7O4eOQx/3VD3cXWv0s48q/8AKO6f/wAYI/8AiIzosH93H+qPueA7Q/xjJ/Xl/uim2WuI&#xA;+N/+cmJZm/Na+jdiY0gtjEpGwDQrWn0jIlycXJ51ZeV/MV+Ee0064lik3SX02EZHs7UX8cx55YRO&#xA;5dhh0WbIPTEke7b5s10b8hvOF/FFPcTWllBIAx5SGWQAjsIwyH/g8xJ6+A5WXPh2LmP1VH8fjq9m&#xA;8meU7ryx5eg0hbr616LOxmVTFX1HL/Z5N0rTrmp1GXxJ8XJ6LRYBhxiBN0ndu8qXcLSMVow+J96A&#xA;nc75Q5UwDE0yP628twi24Dw7c37b++NOv8MAb82T6QnGzr/OxP8AD+GdD2ZGsV95/Y8f2vO81dwH&#xA;6/0o3Ni6tY0SNIshryWoG/jjar8VcrFWDDqDUfRgVdLTlUNyLAM1BShPUYhJW4UOxVwUsaAVPgMC&#xA;tujoaOpU+BFMbSRS6CeWCQSRtRh9x9jiRaYyINhktndLcwLKux6MvgRmJKNFzYS4hatkWbsVdirs&#xA;VdirTMqqWY0UbknFSUkvtYkkJjtyUj6F/wBo/wBMyIYq5uJkzE8kty5oeHyifS9Zc3FskktvKxNv&#xA;cKWjbc05LUcl7++clOJhPcPq2Kcc2EGMtiOYTaLzlE1kyX+mQ394tw9zbvJ8FuheOOKht4wisFEI&#xA;oK08Rkxn23Fm/wAbNEtAeK4SMY1R7+ZP1H3ovyt55uYvNlnqOt3UjWcQeLggpHEroVHGJKKFWv7I&#xA;yWHUETBkdmrWdnA4JQxgcR+Z+KR+atUg1XzFf6hbhhBcSlouezcegqPoyrNMSkSHN0WE4sUYHmA9&#xA;V8q/8o7p/wDxgj/4iM6jB/dx/qj7nzPtD/GMn9eX+6KbZa4jzTXPy78rat52uPNGowC+uvTihtop&#xA;d4YxCKcwnRmJ7t08O+aDWa+UiYw2j971PZ/Z4hESnvL7mH6yqprN0q9KI33rmLHk9lh+kJl5XvBx&#xA;lsXPxRn1IQe6NuQPk2RmOrVmjvafZW0OIBFDuMVRWiyqJHiHQ1H0qa/qORLVqI7Wxi58wa1Zeep7&#xA;LS9QZVaWMz24PONQY1ZuUbVWvEdczcOWeOII5NR02n1GOpgGUfmO7d6poutx6ihRlEdwgqyDoR4j&#xA;NvpNWMoo7SeP7S7MOmNg3A/jdNMzXVOxV2KryawgFh8LbLTf4hua/Rg6p6LMKHAEmg6nAqbRNDbp&#xA;KkUvptEOMjFTu5NK1FTQb0FMpNnm5IIF0eSpcTx8X9aT1I43o0YUk0YbCp477dRgiO5MpDqlNxF6&#xA;UzIDUD7J8Qdwfuy6JsOPIUUx0GQ+pLF2IDAfI0/jlWYN2nO5Cc5Q5TsVdirsVdiqR6vfmWQwRn92&#xA;h+Ijuf7MyMcK3cTNks0Ety5odiqm8EMhq6Bj4kYglaW/VLb/AH0v3YeIooO+qW3++l+7HiK0Ei80&#xA;+T7TWLXlAqw38Q/cygUDf5D07fqzC1mkGYX/ABO57J7VlpZUd8Z5j9I/G6ZeX7Wa10a0tp14zQxK&#xA;ki+BUUOZGKJjCIPQD7nX6vIJ5pyHKUpEfEoi/m9G1dh9o/CvzOUa3LwYyevJt7PweJmA6Dc/BjN5&#xA;J6ds7dyKD5nbOYD2mMXJ5jqr+pq92w7FU/4EZkx5O7xD0odWkjkSaFuE0Zqjj9R9jhZkWnlr5pj4&#xA;hbyF0cdXjHNT924yBh3ONLB3LrrzRbiMi1ikllI25Dgo+ZbBwFEcJ6vN/Ndt+YWq3cH+Hbm5juqu&#xA;bmC3ufqylPh49XjBC7+++Z2lnihfGB8rdZ2zps0xHwr63vTKvy3/ACq1by96ut6rdrJeTqD9ViJc&#xA;KGB5M7n7T/F299zg1usjkqMRsHC7L008MjxHeXR6PotwYNUt3BoC4Rvk/wAJ/XmPpJ8OSJ83M7Sw&#xA;jJgmPK/luz7OnfPnYq7FV6V9KT7Pbr9rr+zgKRyWYUOUkEEdRuMCp0JJHSSRZpGWUc41TqtDUrWv&#xA;X2yivJyrve18vqsHCzSRlmqGb7IVRv0Ow3wCu5JvvSe7mE1y8gqQTQE9SAKA/hl8RQcaZs2j9BQm&#xA;aWTsF4/ea/wyvMdm7TjclOsx3KdirsVdiqH1C4NvaO42c/CnzOThGywySoMZzLcB2KuxV2KuxV2K&#xA;uxV2KpTrUtXSIdhyPzOwzR9q5dxH4vRdi4ajKffsxvVpd0iHb4m/UM1UXpcA6vMUnFw0k/eV2dh3&#xA;FTsD9GZLuIjZdil2KuxVba3a22tWsxIAVgrk9Ar1Un6AcBGzXkFh6hpkoeJoW349B7HMcupzRo2g&#xA;pEa3uad0YFfl1GTiaNtv1x970TOufNG8Vdiq8A+izcQQSByruDuemDqnosHXff2xQvmeN5S0aemh&#xA;6JWtMQEyIJ2dDPNCaxOUJ60PXEgHmkSI5Lpru5mFJZCw8O33DAIgLKZPNTRGdgqAsx2AGElAFsk0&#xA;+0+q24Q7ud3PvmLOVlzscOEInIM3Yq7FXYqlOvyHjDH2JLH6Nhl+EONqDyCT5e4zsVdirsVQOs6k&#xA;um6fJdFeTLRY06VY9MMRZYZJ8ItLvLnml766+r3MaR3K/HEVrwYDelGr88M4bNeHPxGjzZDLI0sj&#xA;SNQMxqQBQZACnIJs2+dP+ctrW4Z/LExkc2bG7R4akRiRREytSv2ipYfRi24ur57+qW/8v4n+uS4Q&#xA;3O+qW/8AL+J/rjwhXfVLf+X8T/XHhCu+qW/8v4n+uPCFd9Ut/wCX8T/XHhCu+qW/8v4n+uPCFd9U&#xA;t/5fxP8AXHhCu+qW/wDL+J/rjwhXfVLf+X8T/XHhCtPb2yIWK7D3P9cSAr3v/nEOC5a68y3AdltE&#xA;S1QxVPAyO0p5U8VVPxyIasz6TwtC+ReAVCnFwKk1rUMARt8sASVmFDuuwxVMLbRbiVQ0hEQPQEVb&#xA;7sqllAb44CeaKXQYf2pWPjQAf1yHjFn+XHejbaytrf8Aukox6sdzlcpktsYCPJXyLN2KuxV2KuxV&#xA;JdfH72I/5J/XmRh5OLqOYSvLnHWLKrSNGK8kpXbbfGlX4qvggeaTglAaEkk0AA6knIyNMoxJNBIf&#xA;zAsbiHSF5igWVX5DcEUZf+NsnhkCXH1kCI7sO0SVo9ZsHXq0iIfkx4H8MulycLGakHpmUOzeNf8A&#xA;OU2nev5Csb1R8djqURZtto5Y5I2/4Yri24ub5dyTe7FXYq7FXYq7FXYq7FXYql9zP6jUX7A6e+QJ&#xA;S+qP+cTtNEHkXUr8ij3moMgPikMMYH/DO2IcfKd3uUSj+8YBkQjkhNCa9h3xLWFmFDsVTXRLNWJu&#xA;XFeJpGPfucoyy6ORgh1TnKHKdirsVdirsVdirsVdiqV69ETDHIP2GIPyb/ay7Cd3H1A2tJcyHFdi&#xA;rsVRekyrHery+y4KH6emV5BYbcMqk35j0w3vl/UNN41kgj9W0p1Kr8SKPpUplWKVSBbdTj48ZDyT&#xA;SATqen03pcRj7nU5sZcnQ4/qHvReufmsbbUng023juLO3bjNPIW/eGtCI6dPYmtcx3KnqaNBQ/5y&#xA;CgN5+VupRoNwI7kV2IEDrIf1Zi58vDOA7z+j9ru9Bh445D3R/SD+h8hA1FfHMxqbxV2KuxVdBDPc&#xA;zi3tYZLm4IJEMKNI5A3PwqCcBICt3EFxaz/V7uGS2noG9GdGjeh6HiwBxBBVZhVokAVJoB1OKoK4&#xA;uS/wpsnc+OQJVD5FL7d/5x90kWH5S6B6oKfW1nuWYAEn1ZnZdq/yFRhtxp893pdvY3N4nOMIqp8F&#xA;elSN+3zyJmIrGBlyVf0He+Kfef6YPFDLwJO/Qd74p95/pj4oXwJJrpsTRWaRuKOpbl/wRymZsuRi&#xA;FRpE5BsdirsVdirsVdirsVdiqncwCeB4j+0Nj4HthiaNsZRsUxZ0ZHZGFGU0I9xmYC4BFNYUOxV2&#xA;Kp5DdCWGC7/3ZE3pT+6vQE/fxb6MxJxoudjnxB4X5z56LeX1vB8LpcSw29OoDfZI+SnM/iuNugyx&#xA;4JkdxSbyX5bbW9bigYVsLMiW8fsaH7H+zIp8qnK1w4+IvRfzF086j5ev7GlfrVpPCB/roV/jmn7R&#xA;lw5IF7PsWPFCce/b5gviGE1hQ+wzdB1K/FXYqtkJCMR1AJGJV9yfkJoflHyt+UGk6vC9vbi/s01D&#xA;WdVlZU5SOOTiWVqUWEkoATQU8ak4UySW0cnjX/OT35tWXmLSLPSdP8uSNpk7Cew81X1vJF6gRtzp&#xA;5YKeDcaMzfaB+z0bJ440xkXz19bRY1JNXIFQMyeJghZZ5JTvsvZRkCUqeBXDrhV+gnkzTf0X5Q0T&#xA;TSOLWdhbQMNvtRwqrdPEjC4cjuyGyuPSlAeR44T9rgcjMWGUJUfJOo7q0jgM/rM0ZPH4iWNfCmUG&#xA;JJqnKEogXaX3t8h4/VJ5S5J5CppQ/PLIQ7w0zydxKc26MkCKxqwA5E9z3/HKCd3KiKC/Al2KuxV2&#xA;KuxV2KuxV2KuxVLNW04yj14hWQD41HcDv88uxzrYtGbHe4STMhxHYq7FWFeaPzo0DyhrEujX1ndX&#xA;LSQBpjAI+IEgPGnNl3GCWLiDfhsbvKPO35r6V5g1k39vaXESFQxRwgPq+mqFvhY90qMsjjIADi6j&#xA;SmcyQeb1T8n7zSb3ygtzp8UkbGZ0u2lChmlUAmnEt8IDADIyFJhi4BTJdeh9S0r4VU/Jhmp7VhcB&#xA;LuLvew8vDkMe8fc+DvMKPpnmDU7AKONrdzxKDXokrAdfbNhhncAfJxtRDhySHcSghfr3Q/Qct4mm&#xA;m/r0f8p/DHiWmjfJ2UnHiWk/8t/mVr+hfUrfjFq2jafK9za6Dqfqz6es7/7tMCPEGZTuvLYEk0qc&#xA;rMQUgp1+ZP59/mB+YNimm6vLb2mlI6yHT7CJoondBRWcu8sjU7DnSvbpgjABJLzrJIdirsVTLyzp&#xA;v6U8x6VptK/Xry3tqePrSrH/AMbYUE7P0LyThpV5m1S60vSJLu1VHnVkVBKCU+NwprxKnv45RqMh&#xA;hCw7DszSxz5hCRIjvy8gwWX81fMiA25gsyqOT9iTr0/357ZrPz875D8fF6wezOnI+qfzj/xKM8lf&#xA;m8suqzDzJa+hYxTpDFf2sTmCJ3JC/WWZ248qfCR4HMiGsMhu67Wez8cZBxGzvsSLPu2D3HLHTOxV&#xA;2KuxV2KuxV2KuxV2KuxV2KoC+0mOcmSIiOU9f5T88thkppyYQdwks9pcQGkqFR/N1H35eJAuLKBH&#xA;NSyTF4F/zkj5bddR0zXbeQxfWUa1uaCo5xfFGd+5VmH0ZZjbsZeMfVrr/lqb/gRllNj60/KXQDon&#xA;kDSrd97i4j+t3DkUJe4+MVHYqhVfoyiR3ceZssl1W60+2sZZb+5itLYUDTzusaKSfhqzEDrlObEJ&#xA;wMT1bNPlOOYkOj4e/Ny1gi8/6rJayx3FrcSLNFPA6yRtzReVGQsNn5d8p0oIxgHmHZa6UZZTKJsS&#xA;3+xh1D4ZkuI6h8MVdQ+GKuofDFXUPhirqHwxV1D4Yq6h8MVZx+SsFo35m6FPfTxWtnaTm5muZ3WK&#xA;NPRjZ1q7EDd1UD3xDCfJ9u2OoWF/brc2NzFd2zEhZoHWRCRsaMpIyTipT53t7mfy3dC2UvLHwlCg&#xA;VJCOGb8BXMbVxJxmnbdiZIw1UeLkbHzDxe4nUc5pSFG7MewzQ830kCgyD8vPKHnHzHoOq2lnBFbe&#xA;X9euoRealP8AbVLSQyUgjrVjVqVpSopXrmZigSK6Oh7Q1eLHkEibnC6Hv730lFGscaRr9lFCr8gK&#xA;ZmvIk2uxQ7FXYq7FXYq7FXYq7FXYq7FXYq4gEUO4xV5l5x12/j8w3FhbMLOG2VKBETlIXUMWJYNt&#xA;vTbMHPqsgnQNU7DTaPHKFkWSxLzBYJ5hslstYke7tkkEqRkhKOoKhgUCnox75XHWZRyl936m/wDI&#xA;4f5v3se/5Vj5O/5Y3/5HS/8ANWT/AD+b+d9g/Un8li7vtLMk1LVY0VEvJFRAFVQI6ADYD7OV/m8v&#xA;877kfkcP8370p8z6Pa+aLGOw15nvrOKQTJCzcFEgUqG/dha0DHrj+ay/zvuSNFiH8LGP+VOfl3/1&#xA;ah/yMk/5qwfmsv8AO+5l+Uxdzv8AlTn5d/8AVqH/ACMk/wCasfzWX+d9y/lMXc7/AJU5+Xf/AFah&#xA;/wAjJP8AmrH81l/nfcv5TF3O/wCVOfl3/wBWof8AIyT/AJqx/NZf533L+Uxdzj+Tn5d0/wCOWB/z&#xA;0k/5qx/NZf533L+UxdyWN+V/kIMQNJjIB2POXf8A4fK/zuX+cn8ni7lkv5ZeRFidhpMdVUkfHL1A&#xA;/wBfD+dy/wA5fymLuY5/g7yx/wBW6H7j/XJ/msnex/LY+5M9a/L/AMnWno/V9LiXny5VLt0pT7TH&#xA;xyMdXlP8STpcY6Kl5+XfkuKK1ZNKiBldFk+JzUMN+rbfRiNZl/nL+Ux9zK9KH+EtEurXy7XT7eR/&#xA;WeNCWBkPFS37zn+yowDWZf5yJaLF/NQk3nTzPfQmyur95bWYqssZVAGAYHchQcM885CiWeDFHFIS&#xA;gAJBW1G0t4bKWSNOLqBxNSe48TmMJG3ZHXZe/wCwJj5L8za7punzJY3bQLJKS4CoakKo7g5Z40o8&#xA;i4mf98bnuQ9C8iedfMF7r8VhfTG6guA4NVUFCiFgwKhfCm+ZOm1EzOju6/VaaEYWNqen5snWOxV2&#xA;KuxV2KuxV2KuxV2KuxV2KuxVLdU8t6Hqsqy39mk8qDishqrU8KqQTlc8MZcw2wzTjyLwzz5+Q35s&#xA;3XmS6u/J3mayttEuG9SCxvecbwV6xqyQXHNQehJB/XiNPh6xSdVl/nMe/wChfv8AnI3/AKmvR/8A&#xA;kZN/2RYfy+H+av5nL/Od/wBC/f8AORv/AFNej/8AIyb/ALIsfy+H+av5nL/Od/0L9/zkb/1Nej/8&#xA;jJv+yLH8vh/mr+Zy/wA53/Qv3/ORv/U16P8A8jJv+yLH8vh/mr+Zy/znf9C/f85G/wDU16P/AMjJ&#xA;v+yLH8vh/mr+Zy/znf8AQv3/ADkb/wBTXo//ACMm/wCyLH8vh/mr+Zy/znf9C/f85G/9TXo//Iyb&#xA;/six/L4f5q/mcv8AOd/0L9/zkb/1Nej/APIyb/six/L4f5q/mcv853/Qv3/ORv8A1Nej/wDIyb/s&#xA;ix/L4f5q/mcv85o/84+/85GEEHzVo5B6j1Jv+yLH8vh/mr+Zy/zlD/oW/wDP/wD6mPQ/+Cl/7IcP&#xA;gYe78fNfzWXv+5Ul/wCcd/8AnIaanq+Z9Ffj05PKaV+dlg/L4f5v4+a/msve23/OPH/ORDhQ3mjR&#xA;mCEFQXmNCPD/AELH8vh/mr+ay97b/wDOPf8AzkU6lH806MynqpkmIP8A05Y/l8P81fzOXvUh/wA4&#xA;4f8AOQAII8yaGCOh5S/9kOHwMPd+Pmv5rL3/AHKr/wDOPf8AzkU6lH806MynqpkmIP8A05YPy+H+&#xA;av5nL3sg/L/8gfzUsPMVrc+bPMdjNoUD+rPYWAZ3uCBtGxeC34KdqkEmm3vglp8X81Rqsve920vy&#xA;3oelStLYWaQSuOLSCrNTwqxJGMMMY8gieacuZTLLGp2KuxV2KuxV2KuxV2KuxV2KuxV2KuxV2Kux&#xA;V2KuxV2KuxV2KuxV2KuxV2KuxV2KuxV2KuxV2KuxV2KuxV2KuxV2KuxV2KuxV2KuxV2KuxV2KuxV&#xA;2KuxV2KuxV2KuxV2KuxV2KuxV2KuxV2KuxV2KuxV2KuxV2KuxV2KuxV2KuxV2KuxV2KuxV2KuxV2&#xA;KuxV2KuxV2KuxV2KuxV2KuxV2KuxV2KuxV2KuxV2KuxV2KuxV2KuxV2KuxV2KuxV2KuxV2KuxV2K&#xA;uxV2KuxV2KuxV2KuxV2KuxV2KuxV2KuxV2KuxV2KuxV2KuxV2KuxV2KuxV2KuxV2KuxV2Kv/2Q==</xmpGImg:image>
               </rdf:li>
            </rdf:Alt>
         </xmp:Thumbnails>
         <xmpMM:InstanceID>xmp.iid:1aa1eb1e-399e-ae43-ae1d-52f5e0e72504</xmpMM:InstanceID>
         <xmpMM:DocumentID>xmp.did:1aa1eb1e-399e-ae43-ae1d-52f5e0e72504</xmpMM:DocumentID>
         <xmpMM:OriginalDocumentID>uuid:5D20892493BFDB11914A8590D31508C8</xmpMM:OriginalDocumentID>
         <xmpMM:RenditionClass>proof:pdf</xmpMM:RenditionClass>
         <xmpMM:DerivedFrom rdf:parseType="Resource">
            <stRef:instanceID>uuid:0a07168a-a356-47a6-8c59-710e4ddb462f</stRef:instanceID>
            <stRef:documentID>xmp.did:14d2a631-85b6-d349-8ad2-feda5b10076c</stRef:documentID>
            <stRef:originalDocumentID>uuid:5D20892493BFDB11914A8590D31508C8</stRef:originalDocumentID>
            <stRef:renditionClass>proof:pdf</stRef:renditionClass>
         </xmpMM:DerivedFrom>
         <xmpMM:History>
            <rdf:Seq>
               <rdf:li rdf:parseType="Resource">
                  <stEvt:action>saved</stEvt:action>
                  <stEvt:instanceID>xmp.iid:D4434AF877C4E711A90EC9D8BFD2844E</stEvt:instanceID>
                  <stEvt:when>2017-11-08T18:28:40+07:00</stEvt:when>
                  <stEvt:softwareAgent>Adobe Illustrator CS6 (Windows)</stEvt:softwareAgent>
                  <stEvt:changed>/</stEvt:changed>
               </rdf:li>
               <rdf:li rdf:parseType="Resource">
                  <stEvt:action>saved</stEvt:action>
                  <stEvt:instanceID>xmp.iid:557A0155CACBE811AF87D79B9A02ED8B</stEvt:instanceID>
                  <stEvt:when>2018-10-09T20:50:59+07:00</stEvt:when>
                  <stEvt:softwareAgent>Adobe Illustrator CS6 (Windows)</stEvt:softwareAgent>
                  <stEvt:changed>/</stEvt:changed>
               </rdf:li>
               <rdf:li rdf:parseType="Resource">
                  <stEvt:action>converted</stEvt:action>
                  <stEvt:parameters>from application/postscript to application/vnd.adobe.illustrator</stEvt:parameters>
               </rdf:li>
               <rdf:li rdf:parseType="Resource">
                  <stEvt:action>saved</stEvt:action>
                  <stEvt:instanceID>xmp.iid:E94A0A2811CDE811B076F8DE4D8655B6</stEvt:instanceID>
                  <stEvt:when>2018-10-11T12:54:51+07:00</stEvt:when>
                  <stEvt:softwareAgent>Adobe Illustrator CS6 (Windows)</stEvt:softwareAgent>
                  <stEvt:changed>/</stEvt:changed>
               </rdf:li>
               <rdf:li rdf:parseType="Resource">
                  <stEvt:action>saved</stEvt:action>
                  <stEvt:instanceID>xmp.iid:171B6D346D11E911A853A871739DB653</stEvt:instanceID>
                  <stEvt:when>2019-01-06T12:36:41+07:00</stEvt:when>
                  <stEvt:softwareAgent>Adobe Illustrator CS6 (Windows)</stEvt:softwareAgent>
                  <stEvt:changed>/</stEvt:changed>
               </rdf:li>
               <rdf:li rdf:parseType="Resource">
                  <stEvt:action>converted</stEvt:action>
                  <stEvt:parameters>from application/postscript to application/vnd.adobe.illustrator</stEvt:parameters>
               </rdf:li>
               <rdf:li rdf:parseType="Resource">
                  <stEvt:action>saved</stEvt:action>
                  <stEvt:instanceID>xmp.iid:92C7DC776012E91194F6DFE8FA66FEDB</stEvt:instanceID>
                  <stEvt:when>2019-01-07T16:42:37+07:00</stEvt:when>
                  <stEvt:softwareAgent>Adobe Illustrator CS6 (Windows)</stEvt:softwareAgent>
                  <stEvt:changed>/</stEvt:changed>
               </rdf:li>
               <rdf:li rdf:parseType="Resource">
                  <stEvt:action>saved</stEvt:action>
                  <stEvt:instanceID>xmp.iid:FBB92077C518E911A96BB0C0C6CCB05E</stEvt:instanceID>
                  <stEvt:when>2019-01-15T19:59:59+07:00</stEvt:when>
                  <stEvt:softwareAgent>Adobe Illustrator CS6 (Windows)</stEvt:softwareAgent>
                  <stEvt:changed>/</stEvt:changed>
               </rdf:li>
               <rdf:li rdf:parseType="Resource">
                  <stEvt:action>converted</stEvt:action>
                  <stEvt:parameters>from application/postscript to application/vnd.adobe.illustrator</stEvt:parameters>
               </rdf:li>
               <rdf:li rdf:parseType="Resource">
                  <stEvt:action>saved</stEvt:action>
                  <stEvt:instanceID>xmp.iid:00BA2077C518E911A96BB0C0C6CCB05E</stEvt:instanceID>
                  <stEvt:when>2019-01-15T20:05:11+07:00</stEvt:when>
                  <stEvt:softwareAgent>Adobe Illustrator CS6 (Windows)</stEvt:softwareAgent>
                  <stEvt:changed>/</stEvt:changed>
               </rdf:li>
               <rdf:li rdf:parseType="Resource">
                  <stEvt:action>saved</stEvt:action>
                  <stEvt:instanceID>xmp.iid:467D79691EC0E9118CF7B24C8FCD678E</stEvt:instanceID>
                  <stEvt:when>2019-08-16T21:45:48+07:00</stEvt:when>
                  <stEvt:softwareAgent>Adobe Illustrator CS6 (Windows)</stEvt:softwareAgent>
                  <stEvt:changed>/</stEvt:changed>
               </rdf:li>
               <rdf:li rdf:parseType="Resource">
                  <stEvt:action>converted</stEvt:action>
                  <stEvt:parameters>from application/postscript to application/vnd.adobe.illustrator</stEvt:parameters>
               </rdf:li>
               <rdf:li rdf:parseType="Resource">
                  <stEvt:action>saved</stEvt:action>
                  <stEvt:instanceID>xmp.iid:d94cbb6f-66bc-2343-901c-9fec03df8abe</stEvt:instanceID>
                  <stEvt:when>2019-08-20T16:29:34+02:00</stEvt:when>
                  <stEvt:softwareAgent>Adobe Illustrator CC 23.0 (Windows)</stEvt:softwareAgent>
                  <stEvt:changed>/</stEvt:changed>
               </rdf:li>
               <rdf:li rdf:parseType="Resource">
                  <stEvt:action>saved</stEvt:action>
                  <stEvt:instanceID>xmp.iid:1aa1eb1e-399e-ae43-ae1d-52f5e0e72504</stEvt:instanceID>
                  <stEvt:when>2019-11-23T00:05:34+01:00</stEvt:when>
                  <stEvt:softwareAgent>Adobe Illustrator CC (Windows)</stEvt:softwareAgent>
                  <stEvt:changed>/</stEvt:changed>
               </rdf:li>
            </rdf:Seq>
         </xmpMM:History>
         <illustrator:StartupProfile>Print</illustrator:StartupProfile>
         <xmpTPg:HasVisibleOverprint>False</xmpTPg:HasVisibleOverprint>
         <xmpTPg:HasVisibleTransparency>False</xmpTPg:HasVisibleTransparency>
         <xmpTPg:NPages>1</xmpTPg:NPages>
         <xmpTPg:MaxPageSize rdf:parseType="Resource">
            <stDim:w>500.000000</stDim:w>
            <stDim:h>500.000000</stDim:h>
            <stDim:unit>Pixels</stDim:unit>
         </xmpTPg:MaxPageSize>
         <xmpTPg:PlateNames>
            <rdf:Seq>
               <rdf:li>Cyan</rdf:li>
               <rdf:li>Magenta</rdf:li>
               <rdf:li>Yellow</rdf:li>
               <rdf:li>Black</rdf:li>
            </rdf:Seq>
         </xmpTPg:PlateNames>
         <xmpTPg:SwatchGroups>
            <rdf:Seq>
               <rdf:li rdf:parseType="Resource">
                  <xmpG:groupName>Default Swatch Group</xmpG:groupName>
                  <xmpG:groupType>0</xmpG:groupType>
               </rdf:li>
            </rdf:Seq>
         </xmpTPg:SwatchGroups>
         <pdf:Producer>Adobe PDF library 15.00</pdf:Producer>
      </rdf:Description>
   </rdf:RDF>
</x:xmpmeta>
                                                                                                    
                                                                                                    
                                                                                                    
                                                                                                    
                                                                                                    
                                                                                                    
                                                                                                    
                                                                                                    
                                                                                                    
                                                                                                    
                                                                                                    
                                                                                                    
                                                                                                    
                                                                                                    
                                                                                                    
                                                                                                    
                                                                                                    
                                                                                                    
                                                                                                    
                                                                                                    
                           
<?xpacket end="w"?>
	</metadata>
<g id="BACKGROUND">
	<rect fill-rule="evenodd" clip-rule="evenodd" fill="#FFFFFF" width="500" height="500"/>
</g>
<g id="OBJECTS">
	<g>
		<path fill-rule="evenodd" clip-rule="evenodd" fill="#C6E3F1" d="M426.195,319.304c-17.62,0-32.036,14.416-32.036,32.036l0,0l0,0
			c0,32.148-26.303,58.451-58.451,58.451h-17.474l0,0H182.456h-68.229c-41.763,0-75.932-34.169-75.932-75.932l0,0
			c0-41.763,34.169-75.933,75.932-75.933l0,0c8.381,0,15.239-6.856,15.239-15.238l0,0c0-8.381-6.857-15.238-15.239-15.238H74.495
			c-20.373,0-37.043-16.67-37.043-37.043l0,0c0-20.351,16.631-37.005,36.973-37.043c0.023,0,36.122,0,36.145,0
			c17.62,0,32.036-14.416,32.036-32.036l0,0l0,0c0-32.148,26.303-58.451,58.451-58.451c57.044,0,128.362,0,185.406,0
			c41.763,0,75.933,34.17,75.933,75.932l0,0c0,41.763-34.17,75.933-75.933,75.933l0,0c-8.381,0-15.238,6.857-15.238,15.238l0,0
			c0,8.381,6.857,15.238,15.238,15.238h39.732C474.666,245.218,474.666,319.304,426.195,319.304z"/>
		<path fill-rule="evenodd" clip-rule="evenodd" fill="#FFFFFF" d="M196.365,123.907c0.779-0.693,0.188-1.988-0.852-1.85
			c-0.211,0.027-0.406,0.118-0.565,0.26c-0.537,0.479-1.067,0.966-1.59,1.461c-0.343,0.322-0.427,0.819-0.227,1.241
			c0.314,0.646,1.167,0.798,1.688,0.307C195.327,124.846,195.843,124.373,196.365,123.907L196.365,123.907z M292.705,367.589
			c-1.007,0.021-1.425,1.31-0.611,1.919c0.195,0.142,0.414,0.215,0.656,0.209l0.884-0.014l1.111-0.029l0.157-0.006
			c1.046-0.044,1.402-1.431,0.505-1.975c-0.177-0.109-0.388-0.161-0.597-0.152l-1.222,0.033L292.705,367.589L292.705,367.589z
			 M301.113,367.128c-0.441,0.046-0.824,0.382-0.921,0.816c-0.164,0.719,0.419,1.377,1.151,1.301l0.97-0.101l1.172-0.136
			c0.951-0.119,1.264-1.37,0.477-1.923c-0.22-0.158-0.489-0.222-0.757-0.188l-1.123,0.131L301.113,367.128L301.113,367.128z
			 M309.44,365.912c-0.343,0.071-0.623,0.297-0.765,0.618c-0.344,0.785,0.35,1.643,1.189,1.469l0.631-0.124l0.987-0.207l0.49-0.109
			c1.017-0.237,1.127-1.635,0.154-2.028c-0.202-0.077-0.414-0.098-0.626-0.047l-0.467,0.103l-0.963,0.202L309.44,365.912
			L309.44,365.912z M317.591,363.885c-1.068,0.349-0.95,1.895,0.173,2.069c0.159,0.021,0.319,0.01,0.472-0.04l0.861-0.268
			l0.917-0.298l0.274-0.093c0.336-0.116,0.584-0.384,0.68-0.726c0.225-0.824-0.569-1.567-1.374-1.287l-0.25,0.085l-0.892,0.289
			L317.591,363.885L317.591,363.885z M325.473,360.996c-0.376,0.171-0.614,0.522-0.632,0.935c-0.035,0.779,0.787,1.333,1.496,1.011
			l0.719-0.314l0.845-0.382l0.403-0.189c0.965-0.46,0.721-1.902-0.342-2.02c-0.203-0.018-0.387,0.009-0.571,0.097l-0.38,0.178
			l-0.819,0.37L325.473,360.996L325.473,360.996z M332.97,357.226c-0.963,0.573-0.512,2.055,0.626,1.98
			c0.165-0.015,0.308-0.061,0.451-0.144l0.317-0.183l0.771-0.459l0.761-0.466c0.94-0.597,0.468-2.04-0.643-1.966
			c-0.179,0.016-0.328,0.063-0.481,0.157l-0.738,0.451l-0.748,0.445L332.97,357.226L332.97,357.226z M339.952,352.594
			c-0.921,0.727-0.188,2.176,0.942,1.867c0.136-0.04,0.241-0.095,0.354-0.179l0.464-0.352l0.69-0.537l0.546-0.437
			c0.73-0.597,0.397-1.76-0.551-1.886c-0.297-0.027-0.554,0.045-0.788,0.23l-0.525,0.42l-0.669,0.52L339.952,352.594
			L339.952,352.594z M346.316,347.143c-0.351,0.35-0.416,0.87-0.17,1.298c0.359,0.599,1.165,0.703,1.665,0.218l0.43-0.42
			l0.607-0.607l0.486-0.498c0.225-0.232,0.333-0.559,0.29-0.879c-0.121-0.884-1.201-1.238-1.821-0.6l-0.469,0.479l-0.589,0.589
			L346.316,347.143L346.316,347.143z M351.966,340.949c-0.241,0.306-0.294,0.693-0.156,1.056c0.307,0.759,1.316,0.909,1.823,0.268
			l0.31-0.386l0.524-0.668l0.493-0.643c0.529-0.713,0.026-1.707-0.862-1.707c-0.328,0.008-0.639,0.156-0.836,0.423l-0.478,0.623
			l-0.509,0.648L351.966,340.949L351.966,340.949z M356.827,334.115c-0.479,0.787,0.175,1.755,1.093,1.608
			c0.311-0.063,0.548-0.219,0.718-0.487l0.172-0.273l0.44-0.721l0.51-0.858c0.221-0.387,0.179-0.867-0.105-1.21
			c-0.475-0.569-1.375-0.492-1.743,0.152l-0.484,0.815l-0.428,0.7L356.827,334.115L356.827,334.115z M360.856,326.754
			c-0.185,0.388-0.115,0.844,0.169,1.165c0.516,0.565,1.427,0.436,1.756-0.255l0.412-0.883l0.349-0.77l0.139-0.316
			c0.433-1.023-0.776-1.946-1.655-1.244c-0.13,0.108-0.232,0.243-0.299,0.398l-0.13,0.296l-0.338,0.748L360.856,326.754
			L360.856,326.754z M364.021,318.99c-0.332,1.019,0.869,1.836,1.694,1.152c0.15-0.129,0.264-0.291,0.325-0.48l0.252-0.741
			l0.263-0.805l0.158-0.499c0.108-0.358,0.027-0.739-0.221-1.021c-0.547-0.618-1.573-0.398-1.815,0.393l-0.15,0.477l-0.256,0.783
			L364.021,318.99L364.021,318.99z M366.322,310.911c-0.225,1.06,1.081,1.74,1.82,0.953c0.135-0.148,0.214-0.301,0.26-0.497
			l0.14-0.62l0.179-0.832l0.132-0.65c0.203-1.083-1.148-1.727-1.86-0.892c-0.118,0.144-0.19,0.296-0.228,0.478l-0.128,0.63
			l-0.174,0.81L366.322,310.911L366.322,310.911z M367.759,302.631c-0.045,0.428,0.153,0.824,0.523,1.042
			c0.669,0.385,1.496-0.036,1.592-0.801l0.064-0.535l0.093-0.851l0.074-0.753c0.086-1.032-1.181-1.571-1.863-0.798
			c-0.15,0.177-0.233,0.369-0.257,0.601l-0.072,0.732l-0.09,0.829L367.759,302.631L367.759,302.631z M368.337,294.246
			c0,1.169,1.586,1.5,2.051,0.416c0.052-0.128,0.075-0.253,0.078-0.39l0.009-0.497l0.007-0.861l-0.003-0.792
			c-0.018-0.898-1.036-1.378-1.737-0.816c-0.254,0.21-0.392,0.504-0.392,0.833l0.002,0.771l-0.006,0.84L368.337,294.246
			L368.337,294.246z M368.07,285.844c0.081,0.974,1.348,1.327,1.919,0.535c0.154-0.205,0.223-0.467,0.202-0.722l-0.043-0.515
			l-0.08-0.863l-0.079-0.763c-0.022-0.219-0.117-0.434-0.266-0.597c-0.698-0.766-1.958-0.198-1.852,0.825l0.077,0.741l0.078,0.843
			L368.07,285.844L368.07,285.844z M366.971,277.51c0.063,0.335,0.286,0.623,0.597,0.767c0.786,0.364,1.654-0.314,1.495-1.164
			l-0.109-0.591l-0.167-0.858l-0.137-0.661c-0.098-0.458-0.48-0.801-0.948-0.842c-0.711-0.062-1.283,0.582-1.135,1.28l0.131,0.641
			l0.164,0.838L366.971,277.51L366.971,277.51z M365.054,269.325c0.135,0.44,0.53,0.751,0.994,0.762
			c0.722,0.016,1.254-0.674,1.047-1.367l-0.211-0.727l-0.256-0.845l-0.152-0.488c-0.345-1.057-1.869-0.955-2.065,0.149
			c-0.026,0.168-0.017,0.335,0.037,0.497l0.146,0.468l0.249,0.824L365.054,269.325L365.054,269.325z M362.334,261.361
			c0.13,0.324,0.41,0.565,0.751,0.643c0.836,0.19,1.544-0.638,1.225-1.433l-0.377-0.933l-0.343-0.822l-0.104-0.243
			c-0.37-0.814-1.483-0.862-1.913-0.08c-0.157,0.298-0.17,0.62-0.039,0.931l0.096,0.224l0.335,0.802L362.334,261.361
			L362.334,261.361z M358.841,253.719c0.524,0.981,2.007,0.613,2.007-0.507c-0.004-0.177-0.041-0.325-0.122-0.483l-0.203-0.391
			l-0.424-0.796l-0.388-0.711c-0.549-0.962-1.996-0.583-1.996,0.536c0.004,0.18,0.049,0.336,0.133,0.494l0.378,0.691l0.412,0.775
			L358.841,253.719L358.841,253.719z M354.604,246.465c0.221,0.327,0.591,0.503,0.983,0.468c0.801-0.07,1.235-0.987,0.786-1.651
			l-0.488-0.738l-0.513-0.759l-0.2-0.288c-0.244-0.351-0.684-0.524-1.102-0.43c-0.74,0.165-1.077,1.029-0.643,1.65l0.188,0.271
			l0.5,0.739L354.604,246.465L354.604,246.465z M349.654,239.666c0.7,0.835,2.042,0.232,1.873-0.856
			c-0.033-0.184-0.107-0.348-0.225-0.493l-0.354-0.438l-0.594-0.717l-0.425-0.502c-0.618-0.715-1.786-0.339-1.87,0.602
			c-0.02,0.296,0.061,0.554,0.253,0.781l0.409,0.484l0.579,0.699L349.654,239.666L349.654,239.666z M344.05,233.396
			c0.752,0.752,2.029,0.059,1.788-1.003c-0.048-0.191-0.141-0.36-0.281-0.5l-0.278-0.282l-0.675-0.67l-0.577-0.561
			c-0.772-0.728-2.009-0.021-1.774,1.012c0.052,0.208,0.146,0.375,0.3,0.524l0.561,0.545l0.658,0.652L344.05,233.396L344.05,233.396
			z M337.852,227.716c0.731,0.597,1.818,0.021,1.735-0.92c-0.033-0.294-0.156-0.534-0.384-0.725l-0.326-0.271l-0.756-0.614
			l-0.591-0.47c-0.308-0.243-0.715-0.292-1.074-0.143c-0.745,0.319-0.876,1.316-0.241,1.817l0.572,0.454l0.738,0.601
			L337.852,227.716L337.852,227.716z M331.132,222.663c0.379,0.257,0.876,0.235,1.239-0.04c0.577-0.449,0.549-1.32-0.058-1.729
			l-0.571-0.387l-0.838-0.554l-0.385-0.248c-0.9-0.571-1.989,0.395-1.532,1.357c0.088,0.182,0.218,0.33,0.389,0.439l0.364,0.235
			l0.819,0.541L331.132,222.663L331.132,222.663z M323.953,218.261c0.482,0.258,1.061,0.127,1.381-0.317
			c0.367-0.518,0.2-1.244-0.357-1.549l-0.197-0.109l-0.911-0.494l-0.788-0.415c-0.907-0.465-1.884,0.473-1.453,1.4
			c0.107,0.217,0.258,0.374,0.47,0.487l0.768,0.405l0.891,0.482L323.953,218.261L323.953,218.261z M316.405,214.523
			c0.847,0.365,1.712-0.413,1.442-1.305c-0.104-0.297-0.295-0.513-0.583-0.643l-1.015-0.442l-0.962-0.406
			c-0.95-0.381-1.832,0.626-1.328,1.52c0.125,0.206,0.288,0.352,0.51,0.445l0.941,0.398L316.405,214.523L316.405,214.523z
			 M308.564,211.446c0.934,0.325,1.771-0.707,1.257-1.558c-0.126-0.213-0.331-0.375-0.564-0.455l-0.153-0.054
			c-0.627-0.213-1.253-0.423-1.882-0.63c-0.896-0.292-1.703,0.645-1.281,1.489c0.136,0.259,0.342,0.444,0.622,0.535
			c0.618,0.202,1.232,0.41,1.849,0.618L308.564,211.446L308.564,211.446z M300.491,208.92c0.404,0.111,0.848-0.017,1.113-0.346
			c0.485-0.587,0.207-1.498-0.529-1.702c-0.688-0.195-1.374-0.387-2.064-0.576c-0.27-0.074-0.553-0.037-0.797,0.097
			c-0.833,0.47-0.681,1.704,0.237,1.958C299.133,208.537,299.811,208.727,300.491,208.92L300.491,208.92z M292.297,206.777
			c1.07,0.25,1.774-1.086,0.958-1.828c-0.134-0.119-0.288-0.202-0.464-0.243c-0.665-0.121-1.412-0.333-2.084-0.486
			c-0.946-0.222-1.673,0.866-1.102,1.657c0.149,0.213,0.376,0.359,0.629,0.418C290.897,206.447,291.639,206.657,292.297,206.777
			L292.297,206.777z M284.018,204.969c1.007,0.188,1.675-0.989,1.002-1.753c-0.163-0.178-0.353-0.286-0.588-0.336
			c-0.699-0.139-1.398-0.274-2.099-0.407c-1.06-0.199-1.717,1.125-0.892,1.854c0.147,0.122,0.305,0.202,0.494,0.237
			C282.63,204.696,283.323,204.831,284.018,204.969L284.018,204.969z M275.672,203.454c1.03,0.172,1.665-1.109,0.903-1.825
			c-0.156-0.146-0.346-0.24-0.558-0.275c-0.703-0.116-1.406-0.23-2.109-0.34c-1.144-0.167-1.706,1.328-0.727,1.957
			c0.125,0.077,0.251,0.122,0.397,0.146C274.276,203.227,274.975,203.34,275.672,203.454L275.672,203.454z M267.281,202.197
			c0.94,0.118,1.558-0.941,0.992-1.695c-0.188-0.235-0.409-0.371-0.709-0.415c-0.705-0.095-1.411-0.188-2.117-0.279
			c-1.072-0.134-1.646,1.23-0.778,1.904c0.15,0.113,0.321,0.185,0.507,0.208C265.878,202.011,266.579,202.102,267.281,202.197
			L267.281,202.197z M258.853,201.167c0.468,0.049,0.923-0.212,1.1-0.651c0.272-0.65-0.166-1.392-0.868-1.465
			c-0.708-0.077-1.415-0.154-2.123-0.227c-1.034-0.107-1.595,1.191-0.797,1.871c0.168,0.141,0.359,0.224,0.578,0.246
			C257.446,201.017,258.15,201.091,258.853,201.167L258.853,201.167z M250.401,200.336c1.04,0.086,1.572-1.218,0.768-1.885
			c-0.17-0.136-0.364-0.219-0.582-0.236c-0.709-0.063-1.418-0.122-2.127-0.181c-0.458-0.039-0.886,0.222-1.067,0.644
			c-0.28,0.669,0.167,1.418,0.892,1.479C248.991,200.214,249.696,200.274,250.401,200.336L250.401,200.336z M241.895,199.577
			c1.103,0.115,1.632-1.318,0.701-1.948c-0.14-0.092-0.303-0.15-0.469-0.168c-0.702-0.075-1.404-0.153-2.105-0.236
			c-0.39-0.049-0.774,0.128-1,0.447c-0.456,0.667-0.055,1.567,0.746,1.667C240.477,199.423,241.186,199.501,241.895,199.577
			L241.895,199.577z M233.4,198.467c0.893,0.13,1.532-0.8,1.089-1.585c-0.166-0.281-0.431-0.464-0.753-0.518
			c-0.693-0.109-1.397-0.215-2.086-0.342c-0.343-0.058-0.677,0.045-0.928,0.287c-0.617,0.617-0.296,1.649,0.561,1.811
			C231.984,198.246,232.695,198.355,233.4,198.467L233.4,198.467z M224.968,196.893c0.987,0.21,1.688-0.92,1.046-1.722
			c-0.161-0.188-0.349-0.302-0.589-0.357c-0.688-0.15-1.374-0.308-2.059-0.469c-0.918-0.215-1.639,0.77-1.155,1.589
			c0.155,0.245,0.38,0.416,0.664,0.483C223.572,196.58,224.269,196.74,224.968,196.893L224.968,196.893z M216.644,194.762
			c0.996,0.297,1.784-0.874,1.135-1.686c-0.132-0.17-0.322-0.292-0.526-0.355c-0.672-0.198-1.344-0.405-2.012-0.619
			c-0.981-0.32-1.802,0.821-1.177,1.654c0.132,0.176,0.314,0.304,0.522,0.371C215.269,194.348,215.956,194.559,216.644,194.762
			L216.644,194.762z M208.503,191.954c0.395,0.157,0.847,0.067,1.148-0.233c0.54-0.54,0.355-1.459-0.354-1.742
			c-0.651-0.26-1.298-0.527-1.941-0.804c-1.047-0.442-1.973,0.829-1.21,1.694c0.103,0.111,0.226,0.199,0.365,0.26
			C207.17,191.413,207.835,191.688,208.503,191.954L208.503,191.954z M200.672,188.317c0.302,0.161,0.648,0.172,0.959,0.028
			c0.788-0.365,0.822-1.49,0.056-1.9c-0.613-0.33-1.223-0.671-1.824-1.022c-0.284-0.169-0.635-0.194-0.941-0.07
			c-0.817,0.339-0.899,1.453-0.141,1.904C199.404,187.621,200.037,187.975,200.672,188.317L200.672,188.317z M193.355,183.67
			c0.838,0.623,1.975-0.192,1.65-1.19c-0.073-0.205-0.191-0.378-0.368-0.509c-0.557-0.418-1.102-0.847-1.642-1.286
			c-0.73-0.597-1.821-0.02-1.735,0.921c0.033,0.294,0.157,0.533,0.385,0.725C192.208,182.788,192.775,183.234,193.355,183.67
			L193.355,183.67z M186.894,177.838c0.733,0.799,2.05,0.132,1.83-0.941c-0.042-0.186-0.124-0.344-0.251-0.487
			c-0.466-0.513-0.916-1.035-1.355-1.57c-0.293-0.359-0.785-0.488-1.216-0.318c-0.67,0.265-0.889,1.106-0.435,1.663
			C185.93,176.747,186.402,177.298,186.894,177.838L186.894,177.838z M181.772,170.748c0.211,0.385,0.627,0.594,1.061,0.545
			c0.753-0.1,1.165-0.898,0.806-1.568c-0.333-0.604-0.647-1.212-0.944-1.835c-0.213-0.446-0.689-0.685-1.174-0.59
			c-0.673,0.135-1.048,0.877-0.752,1.497C181.083,169.458,181.417,170.106,181.772,170.748L181.772,170.748z M178.54,162.597
			c0.088,0.347,0.326,0.615,0.661,0.743c0.806,0.3,1.601-0.421,1.407-1.252c-0.167-0.666-0.311-1.336-0.434-2.011
			c-0.208-1.11-1.752-1.19-2.073-0.104c-0.044,0.158-0.05,0.311-0.023,0.473C178.207,161.168,178.363,161.885,178.54,162.597
			L178.54,162.597z M177.558,153.878c-0.022,1.093,1.419,1.521,1.994,0.547c0.084-0.153,0.131-0.318,0.135-0.493
			c0.015-0.686,0.049-1.372,0.109-2.057c0.093-1.121-1.379-1.61-1.975-0.643c-0.085,0.145-0.129,0.284-0.146,0.45
			C177.609,152.41,177.574,153.148,177.558,153.878L177.558,153.878z M178.962,145.209c-0.071,0.234-0.064,0.453,0.017,0.684
			c0.363,0.953,1.7,0.92,2.016-0.05c0.19-0.621,0.419-1.355,0.67-1.949c0.154-0.409,0.049-0.87-0.275-1.166
			c-0.552-0.504-1.448-0.297-1.713,0.404C179.414,143.81,179.175,144.516,178.962,145.209L178.962,145.209z M182.498,137.222
			c-0.217,0.38-0.186,0.844,0.083,1.19c0.46,0.591,1.388,0.526,1.76-0.124c0.346-0.602,0.706-1.194,1.079-1.779
			c0.249-0.392,0.221-0.896-0.077-1.254c-0.458-0.553-1.331-0.501-1.716,0.105C183.237,135.973,182.861,136.593,182.498,137.222
			L182.498,137.222z M187.455,130.098c-0.589,0.722-0.032,1.799,0.898,1.736c0.305-0.026,0.553-0.152,0.75-0.388
			c0.442-0.541,0.894-1.068,1.352-1.596c0.718-0.83-0.12-2.067-1.162-1.704c-0.176,0.067-0.312,0.157-0.438,0.299
			C188.378,128.985,187.912,129.54,187.455,130.098z"/>
		<g>
			<path fill-rule="evenodd" clip-rule="evenodd" fill="#000618" d="M206.366,212.172c0.199-0.314,0.617-0.408,0.932-0.208
				c0.315,0.199,0.408,0.617,0.208,0.932c-0.076,0.12-26.818,41.674-5.696,65.895c0.245,0.279,0.216,0.705-0.063,0.95
				c-0.28,0.245-0.706,0.217-0.951-0.063C179.002,254.686,206.288,212.295,206.366,212.172z"/>
			<path fill-rule="evenodd" clip-rule="evenodd" fill="#000618" d="M284.348,206.384c-0.199-0.315-0.104-0.732,0.211-0.93
				c0.314-0.198,0.73-0.104,0.929,0.212c0.044,0.068,15.318,23.778-0.792,41.993c-0.246,0.277-0.672,0.304-0.95,0.058
				c-0.278-0.246-0.305-0.672-0.058-0.95C299.12,229.318,284.389,206.45,284.348,206.384z"/>
			<path fill-rule="evenodd" clip-rule="evenodd" fill="#000618" d="M210.687,184.113l-11.264,12.384c0,0,5.393,9.546,4.857,22.063
				c-0.536,12.517-42.737,81.899,35.227,81.541c77.964-0.357,34.587-40.581,34.587-40.581s25.719-8.327,12.732-45.565
				C273.84,176.717,210.687,184.113,210.687,184.113z"/>
			<path fill-rule="evenodd" clip-rule="evenodd" fill="#01020E" d="M274.814,260.221c-0.453-0.454-0.719-0.7-0.719-0.7
				s0.925-0.3,2.334-1.038c2.22-2.483,4.472-5.396,6.661-8.798c10.633-16.528-0.683-39.254-0.683-39.254l-6.018-1.797
				c0,0-11.981-4.291-15.199-5.364c-3.219-1.073-40.413,1.252-50.963,21.101c-10.55,19.849,1.202,48.624,1.202,48.624
				s43.86-1.416,46.363-1.595C259.655,271.266,266.865,268.458,274.814,260.221z"/>
			<path fill-rule="evenodd" clip-rule="evenodd" fill="#EF8871" d="M295.779,271.046c12.525,5.469,14.15,16.921,15.778,29.665
				c1.443,11.302,1.896,28.357-1.081,54.263c-2.976,25.906-50.324-34.176-50.324-34.176L295.779,271.046z"/>
			<path fill-rule="evenodd" clip-rule="evenodd" fill="#F4AD85" d="M222.121,270.707l-12.158-6.22c0,0-12.847,3.196-19.419,11.458
				c-6.572,8.263-26.476,78.867-27.227,87.505c-0.751,8.638,5.1,41.544,15.803,41.544c10.704,0,16.028-71.943,16.028-71.943
				l8.742-26.965L222.121,270.707z"/>
			<path fill-rule="evenodd" clip-rule="evenodd" fill="#EF8871" d="M222.121,270.707l-12.158-6.22c0,0-4.114,1.024-8.878,3.41
				c1.575,0.761,2.806,2.706,2.662,7.017c-0.375,11.268-17.558,54.268-21.313,66.286c-3.756,12.018-6.76,19.153-6.76,19.153
				l-7.826-16.413c-0.707,2.651-1.352,5.137-1.921,7.4c2.928,15.776,6.569,37.403,7.064,49.767c1.815,2.407,3.863,3.887,6.129,3.887
				c10.704,0,16.028-71.943,16.028-71.943l8.742-26.965L222.121,270.707z"/>
			<path fill-rule="evenodd" clip-rule="evenodd" fill="#D84F50" d="M254.347,255.194c0,0,32.309,11.515,41.433,15.852
				c-0.017,0.017-1.744,1.822-3.706,11.727c-1.972,9.952,0,24.411-2.064,38.683c-1.493,10.311-8.475,62.48-12.234,90.637
				l-79.642-6.425c-0.024-1.255-0.075-2.763-0.148-4.473c6.541,5.093,12.81,5.319,8.93-9.558c-6.76-25.914-5.446-70.98-3.193-84.501
				c2.253-13.52,5.61-27.75,2.418-41.457C208.282,263.748,254.347,255.194,254.347,255.194z"/>
			<path fill-rule="evenodd" clip-rule="evenodd" fill="#C23E3E" d="M275.566,262.958c8.083,3.032,16.291,6.223,20.213,8.088
				c-0.017,0.017-1.744,1.822-3.706,11.727c-1.972,9.952,0,24.411-2.064,38.683c-0.299,2.064-0.818,5.809-1.487,10.7
				c-17.994,2.804-71.144,8.892-83.899,7.762c-0.922-0.082-1.831-0.221-2.723-0.411c0-14.062,0.817-26.347,1.821-32.37
				c0.058-0.346,0.116-0.692,0.175-1.039c4.502,13.287,61.181,20.715,61.181,20.715s9.398-20.788,6.957-28.487
				c-2.44-7.699-13.712-7.484-13.712-7.484l0.286-6.881c0,0,11.269-15.258,13.976-19.901
				C272.924,263.474,273.977,263.123,275.566,262.958z"/>
			<path fill-rule="evenodd" clip-rule="evenodd" fill="#B23539" d="M280.146,264.69l0.666,0.254
				c-1.435,5.79-3.358,12.582-6.044,16.584c-2.421,3.606-5.247,6.931-9.354,9.311c-4.101,2.378-9.466,3.805-16.956,3.615
				c-6.527-0.165-11.773-2.571-15.834-5.988c-5.285-4.446-8.558-10.604-10.033-15.749c-2.064-7.198-4.006-9.597-4.668-10.247
				l0.788-0.174c0.922,1.082,2.732,3.842,4.563,10.227c1.444,5.036,4.643,11.06,9.806,15.403c3.948,3.321,9.049,5.661,15.396,5.821
				c7.344,0.186,12.588-1.204,16.584-3.521c3.992-2.314,6.752-5.563,9.12-9.092C276.818,277.203,278.724,270.442,280.146,264.69
				L280.146,264.69z M293.417,269.982c0.202,0.087,0.398,0.173,0.59,0.257c-1.554,2.753-3.743,8.535-5.757,20.633
				c-2.412,14.5,0.352,21.039,2.468,23.791c-0.023,0.331-0.047,0.662-0.073,0.993c-2.27-2.575-5.7-9.233-3.093-24.901
				C289.529,278.87,291.765,272.935,293.417,269.982L293.417,269.982z M203.181,311.153c0.05-0.455,0.102-0.893,0.154-1.313
				c1.815-3.573,8.726-19.293,4.787-44.957c0.215-0.066,0.44-0.133,0.686-0.203c4.529,29.352-5.052,45.906-5.275,46.288
				c-0.019,0.036-0.045,0.069-0.078,0.099C203.376,311.135,203.276,311.163,203.181,311.153z"/>
			<path fill-rule="evenodd" clip-rule="evenodd" fill="#EF8871" d="M251.843,220.632l0.243-0.002
				c7.014-0.078,12.857,5.592,12.901,12.606l0.162,25.866c4.69,1.715,10.301,3.792,15.556,5.8
				c-8.269,17.854-18.02,29.653-33.605,26.273c-21.348-4.63-20.588-22.555-27.089-29.164c6.073-1.315,13.198-2.747,19.38-3.956
				l-0.154-24.522C239.193,226.519,244.829,220.71,251.843,220.632z"/>
			<path fill-rule="evenodd" clip-rule="evenodd" fill="#EA745D" d="M264.195,228.929c0.503,1.344,0.782,2.794,0.792,4.308
				l0.162,25.866c4.69,1.715,10.301,3.792,15.556,5.8c-6.081,13.132-12.966,22.987-22.383,25.938
				c14.975-10.099,10.372-22.573,7.18-23.888c-3.192-1.314-28.535-8.421-28.535-8.421c0.82-0.161,1.63-0.32,2.423-0.476
				l-0.154-24.522c-0.025-3.959,1.76-7.534,4.581-9.911C250.571,223.559,257.297,225.653,264.195,228.929z"/>
			<path fill-rule="evenodd" clip-rule="evenodd" fill="#EA745D" d="M280.689,196.13c0.249,0.001,0.495,0.009,0.74,0.026
				l0.008,0.002l-0.001-0.001c4.53,0.337,8.393,3.758,9.108,8.439c0.829,5.442-2.911,10.527-8.353,11.357
				c-5.442,0.829-10.528-2.91-11.357-8.352c-0.483-3.163,0.578-6.205,2.62-8.36c0.137,2.95,1.081,6.499,4.852,6.365l-0.865-5.683
				C277.089,197.624,279.099,196.277,280.689,196.13z"/>
			<path fill-rule="evenodd" clip-rule="evenodd" fill="#EA745D" d="M209.461,207.366c-0.24,0.065-0.476,0.138-0.708,0.22
				l-0.007,0.003l0.001-0.001c-4.285,1.51-7.117,5.822-6.583,10.528c0.624,5.469,5.563,9.399,11.032,8.776
				c5.47-0.623,9.4-5.563,8.778-11.031c-0.361-3.18-2.181-5.838-4.715-7.385c0.639,2.885,0.656,6.557-3.019,7.414l-0.651-5.712
				C213.327,207.866,211.035,207.092,209.461,207.366z"/>
			<path fill-rule="evenodd" clip-rule="evenodd" fill="#F4AD85" d="M240.247,152.367L240.247,152.367
				c18.607-2.477,35.859,10.721,38.335,29.327l4.095,30.77c2.478,18.607-10.722,35.857-29.329,38.334l0,0
				c-18.603,2.477-35.854-10.721-38.331-29.328l-4.096-30.771C208.444,172.093,221.643,154.843,240.247,152.367z"/>
			<path fill-rule="evenodd" clip-rule="evenodd" fill="#EF8871" d="M240.247,152.367L240.247,152.367
				c17.648-2.35,34.073,9.401,37.833,26.493c-0.181,1.641-0.679,3.312-1.558,5.009l-15.77-0.921c0,0-10.379,19.842-31.697,24.663
				c-5.731,1.296-7.528,7.071-6.358,12.559c2.851,13.364,14.324,32.515,42.577,26.698c-3.602,1.99-7.619,3.357-11.927,3.931l0,0
				c-18.603,2.477-35.854-10.722-38.331-29.328l-4.096-30.771C208.444,172.093,221.643,154.843,240.247,152.367z"/>
			<circle fill-rule="evenodd" clip-rule="evenodd" fill="#EA745D" cx="234.737" cy="224.619" r="4.489"/>
			<circle fill-rule="evenodd" clip-rule="evenodd" fill="#EA745D" cx="271.525" cy="218.799" r="4.489"/>
			<path fill-rule="evenodd" clip-rule="evenodd" fill="#01020E" d="M228.808,202.335c-0.701-0.086-1.342,0.414-1.429,1.115
				c-0.086,0.7,0.414,1.343,1.111,1.429c1.156,0.157,2.534,0.087,3.675-0.104c2.511-0.418,4.781-1.539,6.419-3.526
				c0.448-0.543,0.371-1.356-0.172-1.805c-0.543-0.449-1.357-0.372-1.806,0.172C234.734,201.887,231.624,202.633,228.808,202.335z"
				/>
			<path fill-rule="evenodd" clip-rule="evenodd" fill="#000618" d="M285.396,278.024c0,0,1.303-0.189,1.597,0.833
				c0.293,1.021-4.026,6.514-4.308,6.701c-0.281,0.188-8.849-0.892-8.849-0.892s-0.452-0.423-0.355-0.748
				c0.097-0.326,0.414-0.61,0.414-0.61L285.396,278.024z"/>
			<path fill-rule="evenodd" clip-rule="evenodd" fill="#01020E" d="M271.548,192.392c-2.801-0.507-5.938-0.05-8.002,2.075
				c-0.492,0.507-1.307,0.519-1.814,0.025c-0.506-0.493-0.518-1.307-0.025-1.814c1.795-1.849,4.147-2.781,6.684-2.994
				c1.152-0.097,2.532-0.055,3.668,0.195c0.692,0.143,1.139,0.822,0.995,1.515C272.91,192.087,272.231,192.532,271.548,192.392z"/>
			<path fill-rule="evenodd" clip-rule="evenodd" fill="#000618" d="M219.388,206.109c0,0,0.302,2.262,0.581,4.361
				c0.279,2.1-3.751,7.719-5.36,7.933l-1.02-7.664c0,0-1.15-3.424-5.49-2.846c-15.354-13.537-16.832-38.071-4.295-52.564
				c12.538-14.491,42.96-19.362,48.526-18.295c5.567,1.067,12.262,9.38,12.262,9.38s3.986-4.64,8.465-3.1
				c4.479,1.541,22.059,26.159,22.94,32.782c0.882,6.623-10.192,21.453-10.192,21.453c-4.34,0.577-4.555,4.183-4.555,4.183
				l0.634,4.765c-1.609,0.215-2.798-1.823-3.077-3.923c-0.28-2.1-0.581-4.361-0.581-4.361c-14.16-4.158-21.841-21.446-21.841-21.446
				S241.628,206.402,219.388,206.109z"/>
			<path fill-rule="evenodd" clip-rule="evenodd" fill="#0F1630" d="M195.381,179.117c-0.022-6.278,1.436-12.496,4.38-17.928
				c13.884,10.757,36.311,17.959,54.991-23.303c1.204,0.591,2.408,1.404,3.54,2.296
				C251.056,161.166,232.573,197.809,195.381,179.117z"/>
			<path fill-rule="evenodd" clip-rule="evenodd" fill="#01020E" d="M219.388,206.109c0,0,0.302,2.262,0.581,4.361
				c0.279,2.1-3.751,7.719-5.36,7.933l-1.02-7.664c0,0-1.15-3.424-5.49-2.846c-6.009-5.298-9.892-12.28-11.643-19.686
				c0.02,0.014,26.301,18.268,58.655-15.695c0,0,14.803,23.086,36.46,16.209c-2.757,4.798-5.767,8.829-5.767,8.829
				c-4.34,0.577-4.555,4.183-4.555,4.183l0.635,4.765c-1.61,0.215-2.799-1.823-3.078-3.923c-0.279-2.1-0.581-4.361-0.581-4.361
				c-14.16-4.158-21.841-21.446-21.841-21.446S241.628,206.402,219.388,206.109z"/>
			<path fill-rule="evenodd" clip-rule="evenodd" fill="#EF8871" d="M284.595,251.742l2.215,0.604c0,0,1.298-11.559,1.286-12.679
				c-0.014-1.119-0.585-2.731-1.439-4.618c-0.854-1.888-3.987-9.023-4.155-9.252c-0.169-0.229-2.194,1.53-1.281,4.656
				c0.913,3.127,2.46,7.358,2.446,8.263c-0.014,0.905-2.083,8.912-2.083,8.912L284.595,251.742z"/>
			<path fill-rule="evenodd" clip-rule="evenodd" fill="#F4AD85" d="M286.816,251.843c-0.005-1.058-0.36-2.944-2.581-4.291
				c-2.221-1.347-7.463-5.499-8.581-5.984c-1.118-0.486-2.398-0.267-3.727,0.581c-1.328,0.849-5.521,3.729-6.405,4.647
				c-0.884,0.918-3.085,6.574-3.355,7.168c-0.27,0.594,1.945,1.132,3.712-0.206c0,0-0.925,1.857-1.222,2.485
				c-0.297,0.628-0.706,5.411-0.742,6.381c-0.037,0.97,2.644,0.485,3.553-1.744c0,0-0.146,1.605-0.147,2.104
				c-0.001,0.498,1.533,0.31,1.533,0.31s1.768,9.591,2.164,10.788c0.396,1.196,15.623,55.949,15.623,55.949l22.026-1.33
				c0,0-24.028-53.737-24.187-54.527C283.119,267.413,286.845,257.526,286.816,251.843z"/>
			<path fill-rule="evenodd" clip-rule="evenodd" fill="#EF8871" d="M268.854,263.294l0.094,0.507l0,0l0.034,0.185l0.003,0.017
				l0.002,0.008l0.005,0.026l0.005,0.026l0.005,0.027l0.005,0.023v0.004l0.006,0.027l0.01,0.057l0.006,0.029v0.002l0.017,0.087
				l0.006,0.03c0.472,2.526,1.653,8.78,1.968,9.732c0.294,0.888,8.742,31.224,13.09,46.845c4.731-1.896,8.41-4.14,8.41-4.14
				s-17.04-39.667-17.439-41.23c-0.397-1.563,0.539-2.803,0.21-3.225c-0.328-0.423-1.644-1.033-1.972-2.16
				c-0.328-1.127-1.127-5.117-0.61-6.713c0.398-1.232,1.692-1.081,2.263-0.948c0.651,0.184,1.275,0.367,1.671,0.419
				c0.854,0.113,0.79-0.408,0.79-0.408c0.189-1.767,1.903-4.281,1.903-4.281c-0.934-0.508-2.381-2.915-2.381-2.915
				c-0.954-0.412-1.703-0.942-2.448-0.416c-0.746,0.527-2.817,2.681-2.825,2.869c-0.008,0.188-0.216,2.299-0.572,3.713
				C270.753,262.906,268.854,263.294,268.854,263.294z"/>
			<g>
				<path fill-rule="evenodd" clip-rule="evenodd" fill="#000618" d="M170.328,414.59h159.681c2.454,0,4.46-2.158,4.46-4.798v-0.001
					c0-2.639-2.007-4.797-4.46-4.797H170.328c-2.453,0-4.459,2.16-4.459,4.797v0.001C165.868,412.43,167.874,414.59,170.328,414.59z
					"/>
				<path fill-rule="evenodd" clip-rule="evenodd" fill="#000618" d="M332.905,312.819h-52.562h-60.351h-52.562
					c-2.462,0-4.171,2.013-3.801,4.474l12.647,83.998c0.37,2.461,2.688,4.475,5.148,4.475h24.572h88.342h24.571
					c2.461,0,4.778-2.014,5.148-4.475l12.647-83.998C337.077,314.832,335.366,312.819,332.905,312.819z"/>
				<path fill-rule="evenodd" clip-rule="evenodd" fill="#0F1630" d="M329.226,316.789h-50.225h-57.667h-50.223
					c-2.352,0-3.986,1.924-3.632,4.274l12.085,80.262c0.354,2.352,2.567,4.275,4.919,4.275h23.479h84.412h23.478
					c2.352,0,4.566-1.924,4.92-4.275l12.085-80.262C333.211,318.713,331.577,316.789,329.226,316.789z"/>
				<path fill-rule="evenodd" clip-rule="evenodd" fill="#000618" d="M176.465,380.74l3.1,20.585
					c0.354,2.352,2.567,4.275,4.919,4.275h23.479h84.412h23.478c2.352,0,4.566-1.924,4.92-4.275l12.085-80.262
					c0.284-1.889-0.715-3.502-2.338-4.063C312.421,348.222,267.946,399.36,176.465,380.74z"/>
				<path fill-rule="evenodd" clip-rule="evenodd" fill="#000618" d="M250.168,384.265c9.687,0,17.586-6.595,17.586-14.681
					c0-8.085-7.899-14.68-17.586-14.68c-9.687,0-17.586,6.595-17.586,14.68C232.582,377.67,240.482,384.265,250.168,384.265z"/>
				<path fill-rule="evenodd" clip-rule="evenodd" fill="#FFFFFF" d="M250.168,358.429c4.919,0,9.217,2.22,11.537,5.524
					l-20.446,13.944c-2.733-2.042-4.455-5.01-4.455-8.313C236.805,363.424,242.788,358.429,250.168,358.429L250.168,358.429z
					 M261.024,376.089l-6.141-3.38l-10.239,7.035c1.684,0.64,3.554,0.995,5.524,0.995
					C254.641,380.739,258.6,378.905,261.024,376.089z"/>
			</g>
			<path fill-rule="evenodd" clip-rule="evenodd" fill="#01020E" d="M267.961,201.634L267.961,201.634
				c-1.551,0.247-2.616,1.716-2.369,3.265l0.585,3.675c0.246,1.55,1.716,2.615,3.266,2.369l0,0c1.549-0.247,2.616-1.716,2.369-3.267
				l-0.585-3.674C270.979,202.452,269.511,201.387,267.961,201.634z"/>
			<path fill-rule="evenodd" clip-rule="evenodd" fill="#01020E" d="M233.778,206.813L233.778,206.813
				c-1.55,0.246-2.615,1.716-2.369,3.266l0.585,3.674c0.247,1.549,1.716,2.616,3.266,2.369l0,0c1.549-0.246,2.616-1.717,2.368-3.266
				l-0.584-3.675C236.797,207.632,235.327,206.565,233.778,206.813z"/>
			<path fill-rule="evenodd" clip-rule="evenodd" fill="#EF8871" d="M264.962,226.942c0.446,0.37,0.536,1.011,0.202,1.43
				c-0.335,0.419-0.968,0.458-1.414,0.087c-0.01-0.009-3.419-2.983-9.495,2.612c-0.394,0.363-1.034,0.313-1.43-0.113
				c-0.396-0.426-0.398-1.065-0.005-1.429C260.155,222.774,264.948,226.931,264.962,226.942z"/>
			<path fill-rule="evenodd" clip-rule="evenodd" fill="#0F1630" d="M286.209,278.218c0,0,0.442,0.053,0.513,0.616
				c0.07,0.563-3.335,4.988-12.863,5.323c0,0-0.229-0.071-0.264-0.218c-0.036-0.147,0.115-0.31,0.115-0.31l-0.049-0.178
				c0,0-0.343,0.246-0.343,0.54c0,0.293,1.408,6.179,1.69,7.658c0.281,1.479,3.178,1.137,5.626,0.544
				c2.448-0.592,8.286-2.637,9.819-5.802c0,0,0.188-0.798-0.047-1.48c-0.235-0.681-3.192-6.161-3.345-6.49
				c-0.152-0.328-0.62-0.495-0.95-0.427L286.209,278.218z"/>
			<path fill-rule="evenodd" clip-rule="evenodd" fill="#000618" d="M278.382,283.633c-1.324,0.274-2.826,0.465-4.523,0.524
				c0,0-0.229-0.071-0.264-0.218c-0.036-0.147,0.115-0.31,0.115-0.31l-0.049-0.178c0,0-0.343,0.246-0.343,0.54
				c0,0.293,1.408,6.179,1.69,7.658c0.281,1.479,3.178,1.137,5.626,0.544c0.348-0.084,0.766-0.197,1.229-0.34L278.382,283.633
				L278.382,283.633z"/>
		</g>
		<g>
			<path fill-rule="evenodd" clip-rule="evenodd" fill="#000618" d="M118.121,419.136H381.89c3.313,0,6.023,2.711,6.023,6.024l0,0
				c0,3.313-2.711,6.023-6.023,6.023H118.121c-3.313,0-6.024-2.71-6.024-6.023l0,0C112.097,421.847,114.808,419.136,118.121,419.136
				z"/>
			<path fill-rule="evenodd" clip-rule="evenodd" fill="#BE865E" d="M105.297,409.791h289.415c4.226,0,7.684,3.458,7.684,7.684
				v0.001c0,4.226-3.458,7.685-7.684,7.685H105.297c-4.226,0-7.684-3.458-7.684-7.685v-0.001
				C97.614,413.249,101.071,409.791,105.297,409.791z"/>
			<rect x="280.718" y="409.791" fill-rule="evenodd" clip-rule="evenodd" fill="#915E40" width="15.988" height="15.369"/>
			<rect x="305.012" y="409.791" fill-rule="evenodd" clip-rule="evenodd" fill="#915E40" width="8.306" height="15.369"/>
			<rect x="322.039" y="409.791" fill-rule="evenodd" clip-rule="evenodd" fill="#915E40" width="4.153" height="15.369"/>
			<rect x="340.415" y="409.791" fill-rule="evenodd" clip-rule="evenodd" fill="#915E40" width="17.885" height="15.369"/>
			<rect x="371.783" y="409.791" fill-rule="evenodd" clip-rule="evenodd" fill="#915E40" width="8.942" height="15.369"/>
			<path fill-rule="evenodd" clip-rule="evenodd" fill="#D49D80" d="M105.918,412.286H246.58c2.512,0,4.567,2.056,4.567,4.567v0.001
				c0,2.512-2.056,4.567-4.567,4.567H105.918c-2.511,0-4.567-2.056-4.567-4.567v-0.001
				C101.351,414.342,103.406,412.286,105.918,412.286z"/>
		</g>
		<g>
			<polygon fill-rule="evenodd" clip-rule="evenodd" fill="#D5EAF5" points="199.184,98.409 202.472,117.336 245.141,83.016 
				200.587,93.972 			"/>
			<path fill-rule="evenodd" clip-rule="evenodd" fill="#ECF6FC" d="M202.472,117.336l16.455-13.235
				c0.22-1.548,0.77-3.355,0.77-3.355l-13.826,3.715L202.472,117.336z"/>
			<polygon fill-rule="evenodd" clip-rule="evenodd" fill="#FFFFFF" points="245.141,83.016 187.436,93.689 199.184,98.409 			"/>
			<polygon fill-rule="evenodd" clip-rule="evenodd" fill="#FFFFFF" points="245.141,83.016 219.209,117.469 205.871,104.46 			"/>
		</g>
		<g>
			<path fill-rule="evenodd" clip-rule="evenodd" fill="#A6CAE4" d="M97.07,260.306c5.619-1.338,11.473-2.05,17.485-2.05l0,0
				c8.381,0,15.239-6.857,15.239-15.238l0,0c0-0.729-0.053-1.447-0.153-2.149h24.098c3.636,0,6.611,2.975,6.611,6.61v27.263v2.017
				v17.354c0,0.305-0.174,0.565-0.456,0.682c-0.282,0.117-0.589,0.056-0.804-0.159l-11.265-11.266h-44.144
				c-3.636,0-6.611-2.975-6.611-6.611V260.306z"/>
			<path fill-rule="evenodd" clip-rule="evenodd" fill="#DC5645" d="M101.167,238.354h50.058c3.637,0,6.611,2.975,6.611,6.61v27.264
				v2.017v17.354c0,0.306-0.174,0.565-0.456,0.683c-0.282,0.116-0.588,0.056-0.804-0.16l-11.265-11.266h-44.144
				c-3.636,0-6.611-2.975-6.611-6.61v-29.28C94.556,241.328,97.531,238.354,101.167,238.354z"/>
			<g>
				<path fill-rule="evenodd" clip-rule="evenodd" fill="#FFFFFF" d="M133.146,250.276l8.282,0.032
					c2.114,0.008,4.024,0.905,5.403,2.343c1.375,1.436,2.227,3.407,2.227,5.567v0.028c0,0.034-0.002,0.068-0.005,0.103
					c-0.034,2.114-0.89,4.029-2.248,5.422c-1.39,1.427-3.303,2.31-5.401,2.31h-0.025c-0.032,0-0.064-0.002-0.095-0.005l-8.194-0.032
					l-14.606,7.317c-0.324,0.163-0.667,0.234-1.006,0.215c-0.344-0.02-0.678-0.129-0.98-0.326c-0.3-0.195-0.536-0.455-0.696-0.758
					c-0.156-0.295-0.238-0.628-0.237-0.982l0.097-26.827c0.001-0.36,0.086-0.696,0.245-0.99c0.163-0.303,0.399-0.559,0.699-0.751
					c0.304-0.194,0.639-0.302,0.985-0.318c0.344-0.018,0.687,0.055,1.005,0.218l0.078,0.044L133.146,250.276L133.146,250.276z
					 M141.428,252.386l-8.532-0.033c-0.159,0-0.321-0.037-0.473-0.114l-14.687-7.499l-0.097,26.724l14.713-7.37
					c0.148-0.08,0.317-0.126,0.497-0.125l8.441,0.033l0.112-0.004c1.518,0,2.903-0.642,3.911-1.675
					c1.001-1.027,1.633-2.439,1.661-3.995l-0.003-0.108c0-1.608-0.627-3.068-1.64-4.125
					C144.327,253.045,142.946,252.392,141.428,252.386z"/>
				<path fill-rule="evenodd" clip-rule="evenodd" fill="#FFFFFF" d="M143.268,264.761v9.351c0,1.833-1.5,3.333-3.333,3.333l0,0
					c-1.833,0-3.333-1.5-3.333-3.333v-9.091l4.776,0.019C142.033,265.042,142.668,264.944,143.268,264.761z"/>
				<rect x="134.441" y="251.322" fill-rule="evenodd" clip-rule="evenodd" fill="#FFFFFF" width="1.563" height="13.696"/>
				<rect x="139.452" y="251.322" fill-rule="evenodd" clip-rule="evenodd" fill="#FFFFFF" width="1.563" height="13.696"/>
				<path fill-rule="evenodd" clip-rule="evenodd" fill="#FFFFFF" d="M112.551,253.676c0.566,0.097,0.947,0.635,0.851,1.201
					c-0.096,0.566-0.634,0.947-1.201,0.852l-7.998-1.393c-0.567-0.096-0.948-0.635-0.852-1.201c0.097-0.566,0.635-0.947,1.202-0.851
					L112.551,253.676L112.551,253.676z M111.923,266.588c0.518-0.249,1.139-0.032,1.389,0.485c0.25,0.517,0.033,1.139-0.484,1.388
					l-5.27,2.544c-0.518,0.25-1.139,0.033-1.389-0.484c-0.249-0.517-0.032-1.139,0.485-1.389L111.923,266.588L111.923,266.588z
					 M112.828,247.74c0.517,0.249,0.734,0.871,0.484,1.389c-0.25,0.517-0.871,0.733-1.389,0.484l-6.023-2.908
					c-0.517-0.249-0.734-0.871-0.484-1.389c0.249-0.517,0.871-0.734,1.388-0.484L112.828,247.74L112.828,247.74z M112.2,260.474
					c0.567-0.097,1.105,0.284,1.201,0.851c0.097,0.566-0.284,1.105-0.851,1.201l-7.999,1.393c-0.567,0.097-1.105-0.284-1.202-0.851
					c-0.097-0.566,0.284-1.105,0.852-1.201L112.2,260.474z"/>
			</g>
		</g>
		<g>
			<path fill-rule="evenodd" clip-rule="evenodd" fill="#A6CAE4" d="M380.017,119.184h-52.08c-3.783,0-6.878,3.095-6.878,6.878
				v28.363v2.099v18.055c0,0.317,0.181,0.588,0.475,0.71c0.293,0.121,0.612,0.058,0.836-0.167l11.721-11.72h45.927
				c3.782,0,6.877-3.095,6.877-6.878v-30.462C386.894,122.278,383.799,119.184,380.017,119.184z"/>
			<path fill-rule="evenodd" clip-rule="evenodd" fill="#DC5645" d="M377.026,119.184h-52.079c-3.783,0-6.878,3.095-6.878,6.878
				v28.363v2.099v18.055c0,0.317,0.181,0.588,0.474,0.71c0.293,0.121,0.612,0.058,0.837-0.167l11.72-11.72h45.927
				c3.783,0,6.878-3.095,6.878-6.878v-30.462C383.904,122.278,380.81,119.184,377.026,119.184z"/>
			<g>
				<g>
					<path fill-rule="evenodd" clip-rule="evenodd" fill="#F09A9B" d="M337.983,140.348c2.729,0,4.954-2.227,4.954-4.955
						c0-2.729-2.225-4.956-4.954-4.956s-4.956,2.227-4.956,4.956C333.027,138.121,335.254,140.348,337.983,140.348z"/>
					<path fill-rule="evenodd" clip-rule="evenodd" fill="#F09A9B" d="M337.983,141.917L337.983,141.917
						c3.864,0,7.026,3.162,7.026,7.026v3.022v1.843v1.989c0,0.433-0.354,0.786-0.787,0.786h-12.48c-0.432,0-0.785-0.354-0.785-0.786
						v-1.989v-1.843v-3.022C330.957,145.079,334.119,141.917,337.983,141.917z"/>
				</g>
				<g>
					<path fill-rule="evenodd" clip-rule="evenodd" fill="#F09A9B" d="M363.99,140.348c2.729,0,4.955-2.227,4.955-4.955
						c0-2.729-2.226-4.956-4.955-4.956c-2.729,0-4.955,2.227-4.955,4.956C359.035,138.121,361.262,140.348,363.99,140.348z"/>
					<path fill-rule="evenodd" clip-rule="evenodd" fill="#F09A9B" d="M363.99,141.917L363.99,141.917
						c3.864,0,7.026,3.162,7.026,7.026v3.022v1.843v1.989c0,0.433-0.354,0.786-0.786,0.786h-12.48c-0.433,0-0.785-0.354-0.785-0.786
						v-1.989v-1.843v-3.022C356.965,145.079,360.126,141.917,363.99,141.917z"/>
				</g>
			</g>
			<g>
				<path fill-rule="evenodd" clip-rule="evenodd" fill="#FFFFFF" d="M350.987,137.054c3.283,0,5.96-2.678,5.96-5.961
					c0-3.282-2.677-5.96-5.96-5.96c-3.283,0-5.961,2.678-5.961,5.96C345.026,134.376,347.704,137.054,350.987,137.054z"/>
				<path fill-rule="evenodd" clip-rule="evenodd" fill="#FFFFFF" d="M350.987,138.942L350.987,138.942
					c4.648,0,8.451,3.803,8.451,8.451v3.635v2.217v2.394c0,0.52-0.425,0.945-0.945,0.945H343.48c-0.521,0-0.945-0.425-0.945-0.945
					v-2.394v-2.217v-3.635C342.535,142.745,346.339,138.942,350.987,138.942z"/>
			</g>
		</g>
		<path fill-rule="evenodd" clip-rule="evenodd" fill="#FFFFFF" d="M423.425,264.583c4.709,0,9.183,1.854,12.512,5.183
			c3.329,3.329,5.183,7.804,5.183,12.512c0,4.709-1.853,9.184-5.183,12.512c-3.329,3.329-7.803,5.183-12.512,5.183
			c-4.709,0-9.183-1.854-12.512-5.183c-3.328-3.328-5.183-7.803-5.183-12.512c0-4.708,1.854-9.183,5.183-12.512
			C414.242,266.438,418.716,264.583,423.425,264.583L423.425,264.583z M439.203,283.222h-7.221c-0.048,1.92-0.24,3.85-0.603,5.735
			c1.811,0.424,3.654,1.048,5.299,1.938C438.177,288.595,439.042,285.961,439.203,283.222L439.203,283.222z M430.094,283.222h-5.725
			v4.861c1.729,0.042,3.46,0.202,5.163,0.497C429.869,286.817,430.048,285.015,430.094,283.222L430.094,283.222z M422.481,283.222
			h-5.725c0.045,1.793,0.224,3.596,0.562,5.358c1.703-0.295,3.435-0.455,5.163-0.497V283.222L422.481,283.222z M414.868,283.222
			h-7.222c0.161,2.739,1.026,5.373,2.524,7.673c1.645-0.89,3.487-1.514,5.299-1.938
			C415.107,287.071,414.916,285.142,414.868,283.222L414.868,283.222z M407.646,281.333h7.222c0.04-1.63,0.185-3.263,0.448-4.871
			c-1.906-0.461-3.866-1.145-5.558-2.131C408.512,276.471,407.792,278.861,407.646,281.333L407.646,281.333z M417.165,276.849
			c-0.238,1.482-0.37,2.984-0.408,4.484h5.725v-3.96C420.701,277.329,418.917,277.161,417.165,276.849L417.165,276.849z
			 M429.685,276.849c-1.753,0.313-3.536,0.48-5.316,0.524v3.96h5.725C430.056,279.833,429.924,278.331,429.685,276.849
			L429.685,276.849z M431.981,281.333h7.222c-0.146-2.472-0.865-4.862-2.111-7.002c-1.698,0.988-3.655,1.671-5.559,2.131
			C431.797,278.07,431.941,279.703,431.981,281.333L431.981,281.333z M424.369,266.643v8.843c1.659-0.044,3.323-0.2,4.958-0.488
			c-0.323-1.425-0.765-2.848-1.368-4.173C427.287,269.35,426.049,267.252,424.369,266.643L424.369,266.643z M424.369,289.972v7.94
			c1.68-0.61,2.918-2.707,3.59-4.182c0.482-1.06,0.859-2.179,1.156-3.309C427.549,290.157,425.957,290.013,424.369,289.972
			L424.369,289.972z M422.481,297.912v-7.94c-1.589,0.041-3.181,0.185-4.747,0.45c0.297,1.13,0.674,2.249,1.157,3.309
			C419.563,295.206,420.802,297.303,422.481,297.912L422.481,297.912z M422.481,275.485v-8.843c-1.68,0.609-2.919,2.707-3.591,4.182
			c-0.604,1.325-1.045,2.748-1.368,4.173C419.157,275.285,420.821,275.441,422.481,275.485L422.481,275.485z M410.807,272.757
			c1.492,0.849,3.208,1.444,4.87,1.852c0.354-1.56,0.838-3.114,1.5-4.566c0.458-1.006,1.034-2.03,1.747-2.921
			c-2.515,0.746-4.81,2.113-6.675,3.979C411.73,271.619,411.248,272.173,410.807,272.757L410.807,272.757z M431.173,274.608
			c1.662-0.407,3.378-1.003,4.87-1.852c-0.441-0.584-0.924-1.138-1.441-1.656c-1.866-1.865-4.16-3.233-6.675-3.979
			c0.712,0.891,1.289,1.915,1.748,2.921C430.335,271.494,430.819,273.049,431.173,274.608L431.173,274.608z M435.542,292.428
			c-1.43-0.74-3.017-1.267-4.576-1.631c-0.329,1.268-0.75,2.524-1.291,3.715c-0.459,1.008-1.036,2.031-1.749,2.922
			c2.515-0.746,4.81-2.112,6.676-3.978C434.93,293.126,435.243,292.783,435.542,292.428L435.542,292.428z M415.884,290.797
			c-1.559,0.363-3.146,0.89-4.576,1.631c0.299,0.355,0.612,0.698,0.941,1.027c1.865,1.866,4.16,3.232,6.675,3.978
			c-0.713-0.891-1.289-1.915-1.748-2.921C416.634,293.321,416.213,292.065,415.884,290.797z"/>
		<path fill-rule="evenodd" clip-rule="evenodd" fill="#FFFFFF" d="M76.419,183.653c0.598-1.094,1.428-2.049,2.543-2.649
			c1.044-0.562,1.609-1.462,1.922-2.58c0.377-1.345,0.392-2.932,0.392-4.323c0-0.547,0.444-0.99,0.991-0.99h1.696
			c0.173,0,0.345,0.03,0.51,0.081c0.784,0.245,1.449,1.024,1.84,1.715c0.538,0.948,0.801,2.057,0.802,3.143
			c0.001,0.729-0.116,1.451-0.332,2.146c-0.151,0.481-0.568,1.89-0.374,2.371c0.049,0.035,0.231,0.04,0.289,0.04h4.254
			c0.484,0,0.976,0.053,1.444,0.179c0.658,0.177,1.257,0.501,1.71,1.017c0.552,0.63,0.773,1.41,0.773,2.236
			c0,0.429-0.059,0.859-0.153,1.278c0.613,1.58,0.736,3.544-0.509,4.838c0.077,1.307-0.246,2.731-1.354,3.527
			c-0.604,1.843-2.084,3.037-4.09,3.037h-7.799c-1.332,0-2.663-0.706-3.747-1.523c-0.102,0.368-0.299,0.709-0.582,0.992
			l-0.035,0.031c-0.41,0.387-0.948,0.604-1.512,0.604h-3.545c-0.587,0-1.145-0.232-1.56-0.648c-0.414-0.414-0.647-0.973-0.647-1.559
			v-11.195c0-0.586,0.233-1.145,0.662-1.572l0.033-0.029c0.41-0.388,0.948-0.604,1.512-0.604h3.545
			C75.58,183.214,76.04,183.37,76.419,183.653L76.419,183.653z M77.307,194.651c0.894,0.901,2.393,2.084,3.669,2.084h7.799
			c1.134,0,2.057-0.773,2.273-1.893c0.062-0.297,0.255-0.549,0.527-0.685c0.72-0.36,0.741-1.544,0.638-2.205
			c-0.082-0.381,0.068-0.77,0.382-1.001c0.94-0.692,0.622-2.197,0.219-3.091c-0.122-0.224-0.149-0.477-0.083-0.724
			c0.095-0.354,0.168-0.733,0.168-1.101c0-0.323-0.059-0.681-0.279-0.933c-0.186-0.212-0.468-0.335-0.735-0.407
			c-0.3-0.081-0.622-0.109-0.932-0.109h-4.254c-0.95,0-1.719-0.314-2.105-1.245c-0.444-1.073-0.03-2.686,0.299-3.737
			c0.158-0.505,0.242-1.027,0.243-1.557c0.001-0.746-0.174-1.515-0.544-2.167c-0.115-0.203-0.436-0.687-0.681-0.79H83.25
			c-0.024,1.292-0.113,2.629-0.46,3.866c-0.464,1.655-1.35,2.96-2.89,3.789c-1.467,0.79-2.343,2.709-2.593,4.304V194.651
			L77.307,194.651z M75.101,185.195h-3.545c-0.057,0-0.105,0.016-0.135,0.043l-0.023,0.024c-0.041,0.041-0.066,0.098-0.066,0.156
			v11.195c0,0.061,0.025,0.116,0.066,0.158c0.043,0.042,0.098,0.066,0.158,0.066h3.545c0.057,0,0.104-0.015,0.134-0.041l0.024-0.025
			c0.041-0.042,0.066-0.099,0.066-0.158v-11.195c0-0.059-0.025-0.116-0.067-0.158C75.216,185.22,75.16,185.195,75.101,185.195z"/>
		<g>
			<path fill-rule="evenodd" clip-rule="evenodd" fill="#FFFFFF" d="M358.63,107.391h3.005c0.723,0,1.314-0.592,1.314-1.314v-3.005
				c0-0.723-0.592-1.314-1.314-1.314h-3.005c-0.724,0-1.314,0.592-1.314,1.314v3.005
				C357.315,106.799,357.906,107.391,358.63,107.391z"/>
			<path fill-rule="evenodd" clip-rule="evenodd" fill="#A6CAE4" d="M369.051,107.391h3.005c0.724,0,1.314-0.592,1.314-1.314v-3.005
				c0-0.723-0.591-1.314-1.314-1.314h-3.005c-0.723,0-1.314,0.592-1.314,1.314v3.005
				C367.736,106.799,368.328,107.391,369.051,107.391z"/>
			<path fill-rule="evenodd" clip-rule="evenodd" fill="#FFFFFF" d="M379.472,107.391h3.005c0.724,0,1.314-0.592,1.314-1.314v-3.005
				c0-0.723-0.591-1.314-1.314-1.314h-3.005c-0.723,0-1.313,0.592-1.313,1.314v3.005
				C378.158,106.799,378.749,107.391,379.472,107.391z"/>
			<path fill-rule="evenodd" clip-rule="evenodd" fill="#A6CAE4" d="M389.894,107.391h3.005c0.723,0,1.315-0.592,1.315-1.314v-3.005
				c0-0.723-0.592-1.314-1.315-1.314h-3.005c-0.723,0-1.314,0.592-1.314,1.314v3.005
				C388.579,106.799,389.171,107.391,389.894,107.391z"/>
			<path fill-rule="evenodd" clip-rule="evenodd" fill="#FFFFFF" d="M400.314,107.391h3.005c0.724,0,1.315-0.592,1.315-1.314v-3.005
				c0-0.723-0.591-1.314-1.315-1.314h-3.005c-0.723,0-1.313,0.592-1.313,1.314v3.005
				C399.001,106.799,399.592,107.391,400.314,107.391z"/>
			<path fill-rule="evenodd" clip-rule="evenodd" fill="#FFFFFF" d="M410.735,107.391h3.006c0.723,0,1.315-0.592,1.315-1.314v-3.005
				c0-0.723-0.592-1.314-1.315-1.314h-3.006c-0.723,0-1.314,0.592-1.314,1.314v3.005
				C409.422,106.799,410.013,107.391,410.735,107.391z"/>
			<path fill-rule="evenodd" clip-rule="evenodd" fill="#FFFFFF" d="M421.157,107.391h3.005c0.723,0,1.315-0.592,1.315-1.314v-3.005
				c0-0.723-0.592-1.314-1.315-1.314h-3.005c-0.723,0-1.314,0.592-1.314,1.314v3.005
				C419.843,106.799,420.435,107.391,421.157,107.391z"/>
			<path fill-rule="evenodd" clip-rule="evenodd" fill="#FFFFFF" d="M390.27,96.029h3.005c0.723,0,1.314-0.591,1.314-1.313V91.71
				c0-0.723-0.592-1.313-1.314-1.313h-3.005c-0.723,0-1.314,0.591-1.314,1.313v3.006C388.956,95.438,389.548,96.029,390.27,96.029z"
				/>
			<path fill-rule="evenodd" clip-rule="evenodd" fill="#A6CAE4" d="M400.692,96.029h3.005c0.723,0,1.314-0.591,1.314-1.313V91.71
				c0-0.723-0.592-1.313-1.314-1.313h-3.005c-0.724,0-1.314,0.591-1.314,1.313v3.006C399.378,95.438,399.969,96.029,400.692,96.029z
				"/>
			<path fill-rule="evenodd" clip-rule="evenodd" fill="#FFFFFF" d="M411.113,96.029h3.005c0.724,0,1.314-0.591,1.314-1.313V91.71
				c0-0.723-0.591-1.313-1.314-1.313h-3.005c-0.723,0-1.314,0.591-1.314,1.313v3.006C409.799,95.438,410.391,96.029,411.113,96.029z
				"/>
			<path fill-rule="evenodd" clip-rule="evenodd" fill="#FFFFFF" d="M400.314,119.596h3.005c0.723,0,1.315-0.591,1.315-1.313v-3.006
				c0-0.723-0.592-1.313-1.315-1.313h-3.005c-0.723,0-1.313,0.591-1.313,1.313v3.006
				C399.001,119.005,399.592,119.596,400.314,119.596z"/>
			<path fill-rule="evenodd" clip-rule="evenodd" fill="#A6CAE4" d="M410.735,119.596h3.006c0.723,0,1.314-0.591,1.314-1.313v-3.006
				c0-0.723-0.591-1.313-1.314-1.313h-3.006c-0.723,0-1.314,0.591-1.314,1.313v3.006
				C409.422,119.005,410.013,119.596,410.735,119.596z"/>
		</g>
		<path fill-rule="evenodd" clip-rule="evenodd" fill="#FFFFFF" d="M147.432,193.334L147.432,193.334
			c3.003-3.004,7.918-3.004,10.921,0l0.742,0.741l0.741-0.741c3.003-3.004,7.917-3.004,10.921,0l0,0
			c3.004,3.003,3.004,7.917,0,10.921l-0.741,0.741l-10.921,10.921l-10.921-10.921l-0.741-0.741
			C144.428,201.251,144.428,196.337,147.432,193.334z"/>
		<g>
			<g>
				<g>
					<path fill-rule="evenodd" clip-rule="evenodd" fill="#63A9BA" d="M132.69,321.615c-8.01-8.155-13.968,2.204-13.136,12.604
						c0.789,9.859,9.288,43.688,7.712,57.921h3.254C138.48,373.89,142.944,332.056,132.69,321.615z"/>
					<path fill-rule="evenodd" clip-rule="evenodd" fill="#80B9C9" d="M129.323,392.14c7.748-28.765-2.061-68.526-2.094-68.662
						c-0.06-0.247-0.309-0.398-0.555-0.338c-0.247,0.06-0.399,0.309-0.339,0.556c0.033,0.135,9.854,39.941,2.046,68.444H129.323z"/>
				</g>
				<g>
					<path fill-rule="evenodd" clip-rule="evenodd" fill="#FFFFFF" d="M112.929,339.589c-8.44-4.472-10.569,5.285-7.278,13.358
						c2.727,6.689,14.775,26.479,19.33,39.192h4.29C129.636,374.569,122.893,344.867,112.929,339.589z"/>
					<path fill-rule="evenodd" clip-rule="evenodd" fill="#B8B8C1" d="M127.704,392.14c-2.792-23.764-18.596-49.594-18.653-49.688
						c-0.11-0.182-0.347-0.239-0.528-0.13c-0.182,0.11-0.24,0.347-0.129,0.528c0.056,0.094,15.759,25.757,18.547,49.289H127.704z"/>
				</g>
				<g>
					<path fill-rule="evenodd" clip-rule="evenodd" fill="#3A7F80" d="M148.604,350.867c8.181-3.573,9.477,5.669,5.843,12.961
						c-2.46,4.934-11.321,17.565-17.29,28.311h-6.811C132.676,375.883,140.148,354.561,148.604,350.867z"/>
					<path fill-rule="evenodd" clip-rule="evenodd" fill="#51A5A5" d="M132.779,392.14c5.808-19.695,19.185-38.256,19.238-38.331
						c0.115-0.161,0.34-0.198,0.501-0.083c0.162,0.115,0.199,0.34,0.083,0.501c-0.053,0.074-13.288,18.441-19.083,37.913H132.779z"
						/>
				</g>
			</g>
			<g>
				<path fill-rule="evenodd" clip-rule="evenodd" fill="#2F365C" d="M116.091,384.467h28.284c0.846,0,1.538,0.691,1.538,1.538
					v6.982c0,0.847-0.692,1.539-1.538,1.539h-28.284c-0.846,0-1.538-0.692-1.538-1.539v-6.982
					C114.553,385.158,115.245,384.467,116.091,384.467z"/>
				<polygon fill-rule="evenodd" clip-rule="evenodd" fill="#2F365C" points="120.942,390.147 139.523,390.147 144.375,394.525 
					140.412,409.791 130.233,409.791 120.054,409.791 116.091,394.525 				"/>
				<polygon fill-rule="evenodd" clip-rule="evenodd" fill="#121C39" points="144.375,394.525 143.56,397.663 116.906,397.663 
					116.091,394.525 				"/>
			</g>
		</g>
		<path fill-rule="evenodd" clip-rule="evenodd" fill="#A6CAE4" d="M278.92,104.479c1.448,0,2.629-1.181,2.629-2.629
			c0-1.448-1.181-2.629-2.629-2.629c-1.448,0-2.629,1.181-2.629,2.629C276.291,103.299,277.472,104.479,278.92,104.479z"/>
		<path fill-rule="evenodd" clip-rule="evenodd" fill="#A6CAE4" d="M321.733,255.077c1.447,0,2.629-1.181,2.629-2.629
			c0-1.447-1.182-2.629-2.629-2.629c-1.448,0-2.629,1.182-2.629,2.629C319.104,253.896,320.285,255.077,321.733,255.077z"/>
		<path fill-rule="evenodd" clip-rule="evenodd" fill="#A6CAE4" d="M375.063,364.74c1.447,0,2.629-1.182,2.629-2.629
			c0-1.448-1.182-2.629-2.629-2.629c-1.448,0-2.629,1.181-2.629,2.629C372.434,363.559,373.614,364.74,375.063,364.74z"/>
		<path fill-rule="evenodd" clip-rule="evenodd" fill="#A6CAE4" d="M68.609,343.709c1.448,0,2.629-1.182,2.629-2.629
			c0-1.448-1.181-2.629-2.629-2.629c-1.448,0-2.629,1.181-2.629,2.629C65.98,342.527,67.161,343.709,68.609,343.709z"/>
		<path fill-rule="evenodd" clip-rule="evenodd" fill="#A6CAE4" d="M384.075,184.473c1.448,0,2.629-1.181,2.629-2.629
			c0-1.448-1.181-2.629-2.629-2.629c-1.447,0-2.629,1.181-2.629,2.629C381.446,183.292,382.628,184.473,384.075,184.473z"/>
		<path fill-rule="evenodd" clip-rule="evenodd" fill="#A6CAE4" d="M147.476,167.197c1.448,0,2.629-1.181,2.629-2.629
			c0-1.448-1.181-2.629-2.629-2.629c-1.448,0-2.629,1.181-2.629,2.629C144.847,166.017,146.027,167.197,147.476,167.197z"/>
		<path fill-rule="evenodd" clip-rule="evenodd" fill="#FFFFFF" d="M141.091,318.171c1.448,0,2.629-1.181,2.629-2.629
			c0-1.448-1.181-2.629-2.629-2.629c-1.448,0-2.629,1.181-2.629,2.629C138.462,316.99,139.643,318.171,141.091,318.171z"/>
		<path fill-rule="evenodd" clip-rule="evenodd" fill="#FFFFFF" d="M392.338,305.026c1.448,0,2.629-1.181,2.629-2.629
			c0-1.448-1.181-2.629-2.629-2.629c-1.448,0-2.629,1.181-2.629,2.629C389.709,303.846,390.89,305.026,392.338,305.026z"/>
		<path fill-rule="evenodd" clip-rule="evenodd" fill="#FFFFFF" d="M339.761,193.861c1.447,0,2.629-1.181,2.629-2.629
			c0-1.447-1.182-2.629-2.629-2.629c-1.449,0-2.63,1.182-2.63,2.629C337.131,192.681,338.311,193.861,339.761,193.861z"/>
		<path fill-rule="evenodd" clip-rule="evenodd" fill="#FFFFFF" d="M318.353,96.593c1.447,0,2.629-1.181,2.629-2.629
			c0-1.448-1.182-2.629-2.629-2.629c-1.448,0-2.629,1.181-2.629,2.629C315.725,95.412,316.905,96.593,318.353,96.593z"/>
		<path fill-rule="evenodd" clip-rule="evenodd" fill="#FFFFFF" d="M424.261,162.69c1.447,0,2.629-1.181,2.629-2.629
			c0-1.448-1.182-2.629-2.629-2.629c-1.448,0-2.629,1.181-2.629,2.629C421.632,161.51,422.813,162.69,424.261,162.69z"/>
		<g>
			<path fill-rule="evenodd" clip-rule="evenodd" fill="#A62A34" d="M382.306,384.49c2.287,0,4.461,0.901,6.077,2.518
				c1.616,1.616,2.518,3.791,2.518,6.077c0,2.286-0.901,4.461-2.518,6.077c-1.616,1.616-3.79,2.518-6.077,2.518
				c-2.286,0-4.46-0.901-6.077-2.518c-1.616-1.616-2.517-3.791-2.517-6.077c0-2.286,0.9-4.461,2.517-6.077
				C377.846,385.392,380.02,384.49,382.306,384.49L382.306,384.49z M386.012,389.38c-0.987-0.986-2.31-1.535-3.706-1.535
				c-1.395,0-2.719,0.549-3.704,1.535c-0.987,0.986-1.536,2.31-1.536,3.705c0,1.396,0.549,2.719,1.536,3.705
				c0.985,0.986,2.31,1.535,3.704,1.535c1.396,0,2.719-0.549,3.706-1.535c0.985-0.986,1.534-2.31,1.534-3.705
				C387.546,391.69,386.997,390.366,386.012,389.38z"/>
			<path fill-rule="evenodd" clip-rule="evenodd" fill="#D84F50" d="M368.621,409.916L368.621,409.916
				c7.415,0,13.48-6.063,13.48-13.48v-0.752v-12.292v-1.006c0-0.656-0.536-1.191-1.193-1.191h-24.573
				c-0.656,0-1.193,0.535-1.193,1.191v1.006v12.292v0.752C355.142,403.853,361.208,409.916,368.621,409.916z"/>
			<path fill-rule="evenodd" clip-rule="evenodd" fill="#A62A34" d="M377.486,394.751c0,1.439-0.229,2.828-0.651,4.132
				c-0.238,0.736-0.539,1.445-0.897,2.121c-1.464,2.774-3.867,4.984-6.779,6.198c-1.589,0.662-3.33,1.029-5.153,1.029
				c-0.752,0-1.489-0.063-2.209-0.183c2.005,1.186,4.339,1.867,6.824,1.867c3.029,0,5.832-1.012,8.09-2.714
				c1.469-1.108,2.707-2.51,3.625-4.116c0.372-0.65,0.691-1.335,0.952-2.047c0.525-1.438,0.814-2.988,0.814-4.604v-0.752v-7.791
				v-2.146v-2.355v-1.006c0-0.656-0.536-1.191-1.193-1.191h-3.422v0.513v5.127v2.591v4.574V394.751z"/>
			<path fill-rule="evenodd" clip-rule="evenodd" fill="#D84F50" d="M356.938,409.916h23.366c0.989,0,1.797-0.809,1.797-1.797l0,0
				c0-0.989-0.808-1.798-1.797-1.798h-23.366c-0.988,0-1.797,0.809-1.797,1.798l0,0C355.142,409.107,355.95,409.916,356.938,409.916
				z"/>
			<path fill-rule="evenodd" clip-rule="evenodd" fill="#DE7272" d="M359.459,383.756L359.459,383.756
				c1.25,0,2.271,1.021,2.271,2.271v8.133c0,1.249-1.021,2.27-2.271,2.27h-0.001c-1.248,0-2.271-1.021-2.271-2.27v-8.133
				C357.188,384.777,358.211,383.756,359.459,383.756z"/>
			<path fill-rule="evenodd" clip-rule="evenodd" fill="#FFFFFF" d="M357.108,364.573h10.276c0.779,0,1.417-0.638,1.417-1.417l0,0
				c0-0.779-0.638-1.416-1.417-1.416h-13.823c-2.035,0-3.701-1.666-3.701-3.701l0,0c0-2.035,1.665-3.7,3.701-3.7h35.947
				c2.035,0,3.7,1.665,3.7,3.7l0,0c0,2.035-1.665,3.701-3.7,3.701h-12.538c-0.779,0-1.417,0.637-1.417,1.416l0,0
				c0,0.779,0.638,1.417,1.417,1.417h4.824c1.571,0,2.857,1.285,2.857,2.855l0,0c0,1.57-1.285,2.855-2.857,2.855h-7.979
				c-3.122,0-5.678,2.556-5.678,5.678v2.603c0,0.737-0.604,1.34-1.341,1.34l0,0c-0.737,0-1.341-0.603-1.341-1.34v-4.952
				c0-1.831-1.498-3.329-3.328-3.329h-5.02c-1.57,0-2.855-1.285-2.855-2.855l0,0C354.253,365.858,355.538,364.573,357.108,364.573z"
				/>
		</g>
	</g>
</g>
<g id="DESIGNED_BY_FREEPIK">
</g>
</svg>
